<svg xmlns="http://www.w3.org/2000/svg" xmlns:xlink="http://www.w3.org/1999/xlink" class="httpgd" width="800.00" height="600.00" viewBox="0 0 800.00 600.00">
<defs>
<clipPath id="c0-a136546a-4cc8-494d-95de-7c1b835574e2"><rect x="0.00" y="0.00" width="800.00" height="600.00"/></clipPath>
<clipPath id="c1-a136546a-4cc8-494d-95de-7c1b835574e2"><rect x="47.83" y="22.40" width="320.15" height="546.11"/></clipPath>
<clipPath id="c2-a136546a-4cc8-494d-95de-7c1b835574e2"><rect x="0.00" y="0.00" width="800.00" height="600.00"/></clipPath>
<clipPath id="c3-a136546a-4cc8-494d-95de-7c1b835574e2"><rect x="373.45" y="22.40" width="320.15" height="546.11"/></clipPath>
<clipPath id="c4-a136546a-4cc8-494d-95de-7c1b835574e2"><rect x="0.00" y="0.00" width="800.00" height="600.00"/></clipPath>
<clipPath id="c5-a136546a-4cc8-494d-95de-7c1b835574e2"><rect x="47.83" y="5.48" width="320.15" height="16.92"/></clipPath>
<clipPath id="c6-a136546a-4cc8-494d-95de-7c1b835574e2"><rect x="0.00" y="0.00" width="800.00" height="600.00"/></clipPath>
<clipPath id="c7-a136546a-4cc8-494d-95de-7c1b835574e2"><rect x="373.45" y="5.48" width="320.15" height="16.92"/></clipPath>
<clipPath id="c8-a136546a-4cc8-494d-95de-7c1b835574e2"><rect x="0.00" y="0.00" width="800.00" height="600.00"/></clipPath>
</defs>
<rect width="100%" height="100%" stroke="none" fill="#FFFFFF"/>
<g clip-path="url(#c0-a136546a-4cc8-494d-95de-7c1b835574e2)">
<rect x="0.00" y="0.00" width="800.00" height="600.00" stroke-width="1.07" stroke="#FFFFFF" stroke-linecap="round" stroke-linejoin="round" fill="#FFFFFF"/>
</g><g clip-path="url(#c1-a136546a-4cc8-494d-95de-7c1b835574e2)">
<rect x="47.83" y="22.40" width="320.15" height="546.11" stroke-width="1.07" stroke-linecap="round" stroke-linejoin="round" fill="#EBEBEB"/>
<polyline points="47.83,504.70 367.97,504.70" fill="none" stroke-width="0.53" stroke="#FFFFFF" stroke-linejoin="round"/>
<polyline points="47.83,373.98 367.97,373.98" fill="none" stroke-width="0.53" stroke="#FFFFFF" stroke-linejoin="round"/>
<polyline points="47.83,243.27 367.97,243.27" fill="none" stroke-width="0.53" stroke="#FFFFFF" stroke-linejoin="round"/>
<polyline points="47.83,112.55 367.97,112.55" fill="none" stroke-width="0.53" stroke="#FFFFFF" stroke-linejoin="round"/>
<polyline points="47.83,439.34 367.97,439.34" fill="none" stroke-width="1.07" stroke="#FFFFFF" stroke-linejoin="round"/>
<polyline points="47.83,308.63 367.97,308.63" fill="none" stroke-width="1.07" stroke="#FFFFFF" stroke-linejoin="round"/>
<polyline points="47.83,177.91 367.97,177.91" fill="none" stroke-width="1.07" stroke="#FFFFFF" stroke-linejoin="round"/>
<polyline points="47.83,47.19 367.97,47.19" fill="none" stroke-width="1.07" stroke="#FFFFFF" stroke-linejoin="round"/>
<polyline points="84.77,568.50 84.77,22.40" fill="none" stroke-width="1.07" stroke="#FFFFFF" stroke-linejoin="round"/>
<polyline points="146.33,568.50 146.33,22.40" fill="none" stroke-width="1.07" stroke="#FFFFFF" stroke-linejoin="round"/>
<polyline points="207.90,568.50 207.90,22.40" fill="none" stroke-width="1.07" stroke="#FFFFFF" stroke-linejoin="round"/>
<polyline points="269.47,568.50 269.47,22.40" fill="none" stroke-width="1.07" stroke="#FFFFFF" stroke-linejoin="round"/>
<polyline points="331.03,568.50 331.03,22.40" fill="none" stroke-width="1.07" stroke="#FFFFFF" stroke-linejoin="round"/>
<circle cx="84.77" cy="72.47" r="1.95" stroke-width="0.71" stroke="#333333" stroke-linecap="round" stroke-linejoin="round" fill="#333333"/>
<circle cx="84.77" cy="69.57" r="1.95" stroke-width="0.71" stroke="#333333" stroke-linecap="round" stroke-linejoin="round" fill="#333333"/>
<circle cx="84.77" cy="123.85" r="1.95" stroke-width="0.71" stroke="#333333" stroke-linecap="round" stroke-linejoin="round" fill="#333333"/>
<circle cx="84.77" cy="68.19" r="1.95" stroke-width="0.71" stroke="#333333" stroke-linecap="round" stroke-linejoin="round" fill="#333333"/>
<circle cx="84.77" cy="47.90" r="1.95" stroke-width="0.71" stroke="#333333" stroke-linecap="round" stroke-linejoin="round" fill="#333333"/>
<circle cx="84.77" cy="132.00" r="1.95" stroke-width="0.71" stroke="#333333" stroke-linecap="round" stroke-linejoin="round" fill="#333333"/>
<circle cx="84.77" cy="113.47" r="1.95" stroke-width="0.71" stroke="#333333" stroke-linecap="round" stroke-linejoin="round" fill="#333333"/>
<circle cx="84.77" cy="103.11" r="1.95" stroke-width="0.71" stroke="#333333" stroke-linecap="round" stroke-linejoin="round" fill="#333333"/>
<circle cx="84.77" cy="69.13" r="1.95" stroke-width="0.71" stroke="#333333" stroke-linecap="round" stroke-linejoin="round" fill="#333333"/>
<line x1="84.77" y1="358.00" x2="84.77" y2="204.94" stroke-width="1.07" stroke="#333333" stroke-linejoin="round"/>
<line x1="84.77" y1="497.43" x2="84.77" y2="542.56" stroke-width="1.07" stroke="#333333" stroke-linejoin="round"/>
<polygon points="61.68,358.00 61.68,497.43 107.85,497.43 107.85,358.00 61.68,358.00" stroke-width="1.07" stroke="#333333" stroke-linecap="round" stroke-linejoin="round" fill="#440154"/>
<line x1="61.68" y1="466.09" x2="107.85" y2="466.09" stroke-width="2.13" stroke="#333333" stroke-linejoin="round"/>
<circle cx="146.33" cy="218.22" r="1.95" stroke-width="0.71" stroke="#333333" stroke-linecap="round" stroke-linejoin="round" fill="#333333"/>
<circle cx="146.33" cy="80.13" r="1.95" stroke-width="0.71" stroke="#333333" stroke-linecap="round" stroke-linejoin="round" fill="#333333"/>
<circle cx="146.33" cy="126.70" r="1.95" stroke-width="0.71" stroke="#333333" stroke-linecap="round" stroke-linejoin="round" fill="#333333"/>
<circle cx="146.33" cy="131.06" r="1.95" stroke-width="0.71" stroke="#333333" stroke-linecap="round" stroke-linejoin="round" fill="#333333"/>
<circle cx="146.33" cy="67.27" r="1.95" stroke-width="0.71" stroke="#333333" stroke-linecap="round" stroke-linejoin="round" fill="#333333"/>
<circle cx="146.33" cy="61.94" r="1.95" stroke-width="0.71" stroke="#333333" stroke-linecap="round" stroke-linejoin="round" fill="#333333"/>
<circle cx="146.33" cy="217.23" r="1.95" stroke-width="0.71" stroke="#333333" stroke-linecap="round" stroke-linejoin="round" fill="#333333"/>
<circle cx="146.33" cy="204.99" r="1.95" stroke-width="0.71" stroke="#333333" stroke-linecap="round" stroke-linejoin="round" fill="#333333"/>
<circle cx="146.33" cy="66.23" r="1.95" stroke-width="0.71" stroke="#333333" stroke-linecap="round" stroke-linejoin="round" fill="#333333"/>
<circle cx="146.33" cy="62.72" r="1.95" stroke-width="0.71" stroke="#333333" stroke-linecap="round" stroke-linejoin="round" fill="#333333"/>
<circle cx="146.33" cy="137.26" r="1.95" stroke-width="0.71" stroke="#333333" stroke-linecap="round" stroke-linejoin="round" fill="#333333"/>
<circle cx="146.33" cy="132.11" r="1.95" stroke-width="0.71" stroke="#333333" stroke-linecap="round" stroke-linejoin="round" fill="#333333"/>
<circle cx="146.33" cy="121.47" r="1.95" stroke-width="0.71" stroke="#333333" stroke-linecap="round" stroke-linejoin="round" fill="#333333"/>
<circle cx="146.33" cy="123.04" r="1.95" stroke-width="0.71" stroke="#333333" stroke-linecap="round" stroke-linejoin="round" fill="#333333"/>
<circle cx="146.33" cy="181.78" r="1.95" stroke-width="0.71" stroke="#333333" stroke-linecap="round" stroke-linejoin="round" fill="#333333"/>
<circle cx="146.33" cy="115.19" r="1.95" stroke-width="0.71" stroke="#333333" stroke-linecap="round" stroke-linejoin="round" fill="#333333"/>
<circle cx="146.33" cy="91.56" r="1.95" stroke-width="0.71" stroke="#333333" stroke-linecap="round" stroke-linejoin="round" fill="#333333"/>
<circle cx="146.33" cy="108.63" r="1.95" stroke-width="0.71" stroke="#333333" stroke-linecap="round" stroke-linejoin="round" fill="#333333"/>
<circle cx="146.33" cy="108.24" r="1.95" stroke-width="0.71" stroke="#333333" stroke-linecap="round" stroke-linejoin="round" fill="#333333"/>
<circle cx="146.33" cy="83.64" r="1.95" stroke-width="0.71" stroke="#333333" stroke-linecap="round" stroke-linejoin="round" fill="#333333"/>
<circle cx="146.33" cy="71.22" r="1.95" stroke-width="0.71" stroke="#333333" stroke-linecap="round" stroke-linejoin="round" fill="#333333"/>
<circle cx="146.33" cy="80.89" r="1.95" stroke-width="0.71" stroke="#333333" stroke-linecap="round" stroke-linejoin="round" fill="#333333"/>
<circle cx="146.33" cy="78.85" r="1.95" stroke-width="0.71" stroke="#333333" stroke-linecap="round" stroke-linejoin="round" fill="#333333"/>
<circle cx="146.33" cy="68.37" r="1.95" stroke-width="0.71" stroke="#333333" stroke-linecap="round" stroke-linejoin="round" fill="#333333"/>
<circle cx="146.33" cy="68.45" r="1.95" stroke-width="0.71" stroke="#333333" stroke-linecap="round" stroke-linejoin="round" fill="#333333"/>
<circle cx="146.33" cy="226.48" r="1.95" stroke-width="0.71" stroke="#333333" stroke-linecap="round" stroke-linejoin="round" fill="#333333"/>
<circle cx="146.33" cy="223.74" r="1.95" stroke-width="0.71" stroke="#333333" stroke-linecap="round" stroke-linejoin="round" fill="#333333"/>
<circle cx="146.33" cy="140.34" r="1.95" stroke-width="0.71" stroke="#333333" stroke-linecap="round" stroke-linejoin="round" fill="#333333"/>
<circle cx="146.33" cy="57.31" r="1.95" stroke-width="0.71" stroke="#333333" stroke-linecap="round" stroke-linejoin="round" fill="#333333"/>
<circle cx="146.33" cy="109.86" r="1.95" stroke-width="0.71" stroke="#333333" stroke-linecap="round" stroke-linejoin="round" fill="#333333"/>
<circle cx="146.33" cy="133.36" r="1.95" stroke-width="0.71" stroke="#333333" stroke-linecap="round" stroke-linejoin="round" fill="#333333"/>
<line x1="146.33" y1="380.96" x2="146.33" y2="254.75" stroke-width="1.07" stroke="#333333" stroke-linejoin="round"/>
<line x1="146.33" y1="481.47" x2="146.33" y2="542.58" stroke-width="1.07" stroke="#333333" stroke-linejoin="round"/>
<polygon points="123.24,380.96 123.24,481.47 169.42,481.47 169.42,380.96 123.24,380.96" stroke-width="1.07" stroke="#333333" stroke-linecap="round" stroke-linejoin="round" fill="#3B528B"/>
<line x1="123.24" y1="439.38" x2="169.42" y2="439.38" stroke-width="2.13" stroke="#333333" stroke-linejoin="round"/>
<circle cx="207.90" cy="59.30" r="1.95" stroke-width="0.71" stroke="#333333" stroke-linecap="round" stroke-linejoin="round" fill="#333333"/>
<circle cx="207.90" cy="49.13" r="1.95" stroke-width="0.71" stroke="#333333" stroke-linecap="round" stroke-linejoin="round" fill="#333333"/>
<circle cx="207.90" cy="68.06" r="1.95" stroke-width="0.71" stroke="#333333" stroke-linecap="round" stroke-linejoin="round" fill="#333333"/>
<circle cx="207.90" cy="58.54" r="1.95" stroke-width="0.71" stroke="#333333" stroke-linecap="round" stroke-linejoin="round" fill="#333333"/>
<circle cx="207.90" cy="68.40" r="1.95" stroke-width="0.71" stroke="#333333" stroke-linecap="round" stroke-linejoin="round" fill="#333333"/>
<circle cx="207.90" cy="62.38" r="1.95" stroke-width="0.71" stroke="#333333" stroke-linecap="round" stroke-linejoin="round" fill="#333333"/>
<circle cx="207.90" cy="56.97" r="1.95" stroke-width="0.71" stroke="#333333" stroke-linecap="round" stroke-linejoin="round" fill="#333333"/>
<circle cx="207.90" cy="53.99" r="1.95" stroke-width="0.71" stroke="#333333" stroke-linecap="round" stroke-linejoin="round" fill="#333333"/>
<circle cx="207.90" cy="51.19" r="1.95" stroke-width="0.71" stroke="#333333" stroke-linecap="round" stroke-linejoin="round" fill="#333333"/>
<circle cx="207.90" cy="55.01" r="1.95" stroke-width="0.71" stroke="#333333" stroke-linecap="round" stroke-linejoin="round" fill="#333333"/>
<circle cx="207.90" cy="64.68" r="1.95" stroke-width="0.71" stroke="#333333" stroke-linecap="round" stroke-linejoin="round" fill="#333333"/>
<circle cx="207.90" cy="63.09" r="1.95" stroke-width="0.71" stroke="#333333" stroke-linecap="round" stroke-linejoin="round" fill="#333333"/>
<circle cx="207.90" cy="55.95" r="1.95" stroke-width="0.71" stroke="#333333" stroke-linecap="round" stroke-linejoin="round" fill="#333333"/>
<circle cx="207.90" cy="62.07" r="1.95" stroke-width="0.71" stroke="#333333" stroke-linecap="round" stroke-linejoin="round" fill="#333333"/>
<line x1="207.90" y1="323.42" x2="207.90" y2="70.88" stroke-width="1.07" stroke="#333333" stroke-linejoin="round"/>
<line x1="207.90" y1="491.79" x2="207.90" y2="538.69" stroke-width="1.07" stroke="#333333" stroke-linejoin="round"/>
<polygon points="184.81,323.42 184.81,491.79 230.99,491.79 230.99,323.42 184.81,323.42" stroke-width="1.07" stroke="#333333" stroke-linecap="round" stroke-linejoin="round" fill="#21908C"/>
<line x1="184.81" y1="433.85" x2="230.99" y2="433.85" stroke-width="2.13" stroke="#333333" stroke-linejoin="round"/>
<circle cx="269.47" cy="74.72" r="1.95" stroke-width="0.71" stroke="#333333" stroke-linecap="round" stroke-linejoin="round" fill="#333333"/>
<circle cx="269.47" cy="77.42" r="1.95" stroke-width="0.71" stroke="#333333" stroke-linecap="round" stroke-linejoin="round" fill="#333333"/>
<circle cx="269.47" cy="80.60" r="1.95" stroke-width="0.71" stroke="#333333" stroke-linecap="round" stroke-linejoin="round" fill="#333333"/>
<circle cx="269.47" cy="47.22" r="1.95" stroke-width="0.71" stroke="#333333" stroke-linecap="round" stroke-linejoin="round" fill="#333333"/>
<circle cx="269.47" cy="59.82" r="1.95" stroke-width="0.71" stroke="#333333" stroke-linecap="round" stroke-linejoin="round" fill="#333333"/>
<circle cx="269.47" cy="71.56" r="1.95" stroke-width="0.71" stroke="#333333" stroke-linecap="round" stroke-linejoin="round" fill="#333333"/>
<circle cx="269.47" cy="110.36" r="1.95" stroke-width="0.71" stroke="#333333" stroke-linecap="round" stroke-linejoin="round" fill="#333333"/>
<circle cx="269.47" cy="82.10" r="1.95" stroke-width="0.71" stroke="#333333" stroke-linecap="round" stroke-linejoin="round" fill="#333333"/>
<circle cx="269.47" cy="98.41" r="1.95" stroke-width="0.71" stroke="#333333" stroke-linecap="round" stroke-linejoin="round" fill="#333333"/>
<circle cx="269.47" cy="124.42" r="1.95" stroke-width="0.71" stroke="#333333" stroke-linecap="round" stroke-linejoin="round" fill="#333333"/>
<circle cx="269.47" cy="60.21" r="1.95" stroke-width="0.71" stroke="#333333" stroke-linecap="round" stroke-linejoin="round" fill="#333333"/>
<circle cx="269.47" cy="59.93" r="1.95" stroke-width="0.71" stroke="#333333" stroke-linecap="round" stroke-linejoin="round" fill="#333333"/>
<circle cx="269.47" cy="69.65" r="1.95" stroke-width="0.71" stroke="#333333" stroke-linecap="round" stroke-linejoin="round" fill="#333333"/>
<circle cx="269.47" cy="129.39" r="1.95" stroke-width="0.71" stroke="#333333" stroke-linecap="round" stroke-linejoin="round" fill="#333333"/>
<circle cx="269.47" cy="101.47" r="1.95" stroke-width="0.71" stroke="#333333" stroke-linecap="round" stroke-linejoin="round" fill="#333333"/>
<circle cx="269.47" cy="67.14" r="1.95" stroke-width="0.71" stroke="#333333" stroke-linecap="round" stroke-linejoin="round" fill="#333333"/>
<circle cx="269.47" cy="56.95" r="1.95" stroke-width="0.71" stroke="#333333" stroke-linecap="round" stroke-linejoin="round" fill="#333333"/>
<circle cx="269.47" cy="128.63" r="1.95" stroke-width="0.71" stroke="#333333" stroke-linecap="round" stroke-linejoin="round" fill="#333333"/>
<circle cx="269.47" cy="48.68" r="1.95" stroke-width="0.71" stroke="#333333" stroke-linecap="round" stroke-linejoin="round" fill="#333333"/>
<circle cx="269.47" cy="122.41" r="1.95" stroke-width="0.71" stroke="#333333" stroke-linecap="round" stroke-linejoin="round" fill="#333333"/>
<circle cx="269.47" cy="54.59" r="1.95" stroke-width="0.71" stroke="#333333" stroke-linecap="round" stroke-linejoin="round" fill="#333333"/>
<circle cx="269.47" cy="121.21" r="1.95" stroke-width="0.71" stroke="#333333" stroke-linecap="round" stroke-linejoin="round" fill="#333333"/>
<circle cx="269.47" cy="110.80" r="1.95" stroke-width="0.71" stroke="#333333" stroke-linecap="round" stroke-linejoin="round" fill="#333333"/>
<circle cx="269.47" cy="56.13" r="1.95" stroke-width="0.71" stroke="#333333" stroke-linecap="round" stroke-linejoin="round" fill="#333333"/>
<circle cx="269.47" cy="51.56" r="1.95" stroke-width="0.71" stroke="#333333" stroke-linecap="round" stroke-linejoin="round" fill="#333333"/>
<circle cx="269.47" cy="64.76" r="1.95" stroke-width="0.71" stroke="#333333" stroke-linecap="round" stroke-linejoin="round" fill="#333333"/>
<circle cx="269.47" cy="56.71" r="1.95" stroke-width="0.71" stroke="#333333" stroke-linecap="round" stroke-linejoin="round" fill="#333333"/>
<line x1="269.47" y1="333.80" x2="269.47" y2="130.25" stroke-width="1.07" stroke="#333333" stroke-linejoin="round"/>
<line x1="269.47" y1="469.87" x2="269.47" y2="517.75" stroke-width="1.07" stroke="#333333" stroke-linejoin="round"/>
<polygon points="246.38,333.80 246.38,469.87 292.55,469.87 292.55,333.80 246.38,333.80" stroke-width="1.07" stroke="#333333" stroke-linecap="round" stroke-linejoin="round" fill="#5DC863"/>
<line x1="246.38" y1="427.23" x2="292.55" y2="427.23" stroke-width="2.13" stroke="#333333" stroke-linejoin="round"/>
<line x1="331.03" y1="224.18" x2="331.03" y2="58.02" stroke-width="1.07" stroke="#333333" stroke-linejoin="round"/>
<line x1="331.03" y1="444.00" x2="331.03" y2="514.45" stroke-width="1.07" stroke="#333333" stroke-linejoin="round"/>
<polygon points="307.94,224.18 307.94,444.00 354.12,444.00 354.12,224.18 307.94,224.18" stroke-width="1.07" stroke="#333333" stroke-linecap="round" stroke-linejoin="round" fill="#FDE725"/>
<line x1="307.94" y1="406.09" x2="354.12" y2="406.09" stroke-width="2.13" stroke="#333333" stroke-linejoin="round"/>
</g><g clip-path="url(#c3-a136546a-4cc8-494d-95de-7c1b835574e2)">
<rect x="373.45" y="22.40" width="320.15" height="546.11" stroke-width="1.07" stroke-linecap="round" stroke-linejoin="round" fill="#EBEBEB"/>
<polyline points="373.45,504.70 693.60,504.70" fill="none" stroke-width="0.53" stroke="#FFFFFF" stroke-linejoin="round"/>
<polyline points="373.45,373.98 693.60,373.98" fill="none" stroke-width="0.53" stroke="#FFFFFF" stroke-linejoin="round"/>
<polyline points="373.45,243.27 693.60,243.27" fill="none" stroke-width="0.53" stroke="#FFFFFF" stroke-linejoin="round"/>
<polyline points="373.45,112.55 693.60,112.55" fill="none" stroke-width="0.53" stroke="#FFFFFF" stroke-linejoin="round"/>
<polyline points="373.45,439.34 693.60,439.34" fill="none" stroke-width="1.07" stroke="#FFFFFF" stroke-linejoin="round"/>
<polyline points="373.45,308.63 693.60,308.63" fill="none" stroke-width="1.07" stroke="#FFFFFF" stroke-linejoin="round"/>
<polyline points="373.45,177.91 693.60,177.91" fill="none" stroke-width="1.07" stroke="#FFFFFF" stroke-linejoin="round"/>
<polyline points="373.45,47.19 693.60,47.19" fill="none" stroke-width="1.07" stroke="#FFFFFF" stroke-linejoin="round"/>
<polyline points="410.39,568.50 410.39,22.40" fill="none" stroke-width="1.07" stroke="#FFFFFF" stroke-linejoin="round"/>
<polyline points="471.96,568.50 471.96,22.40" fill="none" stroke-width="1.07" stroke="#FFFFFF" stroke-linejoin="round"/>
<polyline points="533.52,568.50 533.52,22.40" fill="none" stroke-width="1.07" stroke="#FFFFFF" stroke-linejoin="round"/>
<polyline points="595.09,568.50 595.09,22.40" fill="none" stroke-width="1.07" stroke="#FFFFFF" stroke-linejoin="round"/>
<polyline points="656.66,568.50 656.66,22.40" fill="none" stroke-width="1.07" stroke="#FFFFFF" stroke-linejoin="round"/>
<circle cx="410.39" cy="395.61" r="1.95" stroke-width="0.71" stroke="#333333" stroke-linecap="round" stroke-linejoin="round" fill="#333333"/>
<circle cx="410.39" cy="214.25" r="1.95" stroke-width="0.71" stroke="#333333" stroke-linecap="round" stroke-linejoin="round" fill="#333333"/>
<circle cx="410.39" cy="300.13" r="1.95" stroke-width="0.71" stroke="#333333" stroke-linecap="round" stroke-linejoin="round" fill="#333333"/>
<circle cx="410.39" cy="51.25" r="1.95" stroke-width="0.71" stroke="#333333" stroke-linecap="round" stroke-linejoin="round" fill="#333333"/>
<circle cx="410.39" cy="378.27" r="1.95" stroke-width="0.71" stroke="#333333" stroke-linecap="round" stroke-linejoin="round" fill="#333333"/>
<circle cx="410.39" cy="372.60" r="1.95" stroke-width="0.71" stroke="#333333" stroke-linecap="round" stroke-linejoin="round" fill="#333333"/>
<line x1="410.39" y1="463.39" x2="410.39" y2="435.16" stroke-width="1.07" stroke="#333333" stroke-linejoin="round"/>
<line x1="410.39" y1="507.72" x2="410.39" y2="543.68" stroke-width="1.07" stroke="#333333" stroke-linejoin="round"/>
<polygon points="387.30,463.39 387.30,507.72 433.48,507.72 433.48,463.39 387.30,463.39" stroke-width="1.07" stroke="#333333" stroke-linecap="round" stroke-linejoin="round" fill="#440154"/>
<line x1="387.30" y1="490.56" x2="433.48" y2="490.56" stroke-width="2.13" stroke="#333333" stroke-linejoin="round"/>
<circle cx="471.96" cy="296.03" r="1.95" stroke-width="0.71" stroke="#333333" stroke-linecap="round" stroke-linejoin="round" fill="#333333"/>
<line x1="471.96" y1="424.73" x2="471.96" y2="312.44" stroke-width="1.07" stroke="#333333" stroke-linejoin="round"/>
<line x1="471.96" y1="508.30" x2="471.96" y2="529.04" stroke-width="1.07" stroke="#333333" stroke-linejoin="round"/>
<polygon points="448.87,424.73 448.87,508.30 495.04,508.30 495.04,424.73 448.87,424.73" stroke-width="1.07" stroke="#333333" stroke-linecap="round" stroke-linejoin="round" fill="#3B528B"/>
<line x1="448.87" y1="493.63" x2="495.04" y2="493.63" stroke-width="2.13" stroke="#333333" stroke-linejoin="round"/>
<circle cx="533.52" cy="59.09" r="1.95" stroke-width="0.71" stroke="#333333" stroke-linecap="round" stroke-linejoin="round" fill="#333333"/>
<circle cx="533.52" cy="50.88" r="1.95" stroke-width="0.71" stroke="#333333" stroke-linecap="round" stroke-linejoin="round" fill="#333333"/>
<circle cx="533.52" cy="225.12" r="1.95" stroke-width="0.71" stroke="#333333" stroke-linecap="round" stroke-linejoin="round" fill="#333333"/>
<circle cx="533.52" cy="251.92" r="1.95" stroke-width="0.71" stroke="#333333" stroke-linecap="round" stroke-linejoin="round" fill="#333333"/>
<circle cx="533.52" cy="210.38" r="1.95" stroke-width="0.71" stroke="#333333" stroke-linecap="round" stroke-linejoin="round" fill="#333333"/>
<circle cx="533.52" cy="77.94" r="1.95" stroke-width="0.71" stroke="#333333" stroke-linecap="round" stroke-linejoin="round" fill="#333333"/>
<circle cx="533.52" cy="231.87" r="1.95" stroke-width="0.71" stroke="#333333" stroke-linecap="round" stroke-linejoin="round" fill="#333333"/>
<line x1="533.52" y1="419.62" x2="533.52" y2="286.30" stroke-width="1.07" stroke="#333333" stroke-linejoin="round"/>
<line x1="533.52" y1="509.73" x2="533.52" y2="541.80" stroke-width="1.07" stroke="#333333" stroke-linejoin="round"/>
<polygon points="510.44,419.62 510.44,509.73 556.61,509.73 556.61,419.62 510.44,419.62" stroke-width="1.07" stroke="#333333" stroke-linecap="round" stroke-linejoin="round" fill="#21908C"/>
<line x1="510.44" y1="495.21" x2="556.61" y2="495.21" stroke-width="2.13" stroke="#333333" stroke-linejoin="round"/>
<circle cx="595.09" cy="66.91" r="1.95" stroke-width="0.71" stroke="#333333" stroke-linecap="round" stroke-linejoin="round" fill="#333333"/>
<circle cx="595.09" cy="212.03" r="1.95" stroke-width="0.71" stroke="#333333" stroke-linecap="round" stroke-linejoin="round" fill="#333333"/>
<line x1="595.09" y1="398.38" x2="595.09" y2="260.29" stroke-width="1.07" stroke="#333333" stroke-linejoin="round"/>
<line x1="595.09" y1="498.37" x2="595.09" y2="534.53" stroke-width="1.07" stroke="#333333" stroke-linejoin="round"/>
<polygon points="572.00,398.38 572.00,498.37 618.18,498.37 618.18,398.38 572.00,398.38" stroke-width="1.07" stroke="#333333" stroke-linecap="round" stroke-linejoin="round" fill="#5DC863"/>
<line x1="572.00" y1="453.85" x2="618.18" y2="453.85" stroke-width="2.13" stroke="#333333" stroke-linejoin="round"/>
<line x1="656.66" y1="375.40" x2="656.66" y2="304.21" stroke-width="1.07" stroke="#333333" stroke-linejoin="round"/>
<line x1="656.66" y1="492.78" x2="656.66" y2="503.50" stroke-width="1.07" stroke="#333333" stroke-linejoin="round"/>
<polygon points="633.57,375.40 633.57,492.78 679.74,492.78 679.74,375.40 633.57,375.40" stroke-width="1.07" stroke="#333333" stroke-linecap="round" stroke-linejoin="round" fill="#FDE725"/>
<line x1="633.57" y1="409.70" x2="679.74" y2="409.70" stroke-width="2.13" stroke="#333333" stroke-linejoin="round"/>
</g><g clip-path="url(#c5-a136546a-4cc8-494d-95de-7c1b835574e2)">
<rect x="47.83" y="5.48" width="320.15" height="16.92" stroke-width="1.07" stroke-linecap="round" stroke-linejoin="round" fill="#D9D9D9"/>
<g><text x="207.90" y="17.09" text-anchor="middle" font-family="Arial" font-size="8.80px" fill="#1A1A1A" textLength="11.25px" lengthAdjust="spacingAndGlyphs">No</text></g>
</g><g clip-path="url(#c7-a136546a-4cc8-494d-95de-7c1b835574e2)">
<rect x="373.45" y="5.48" width="320.15" height="16.92" stroke-width="1.07" stroke-linecap="round" stroke-linejoin="round" fill="#D9D9D9"/>
<g><text x="533.52" y="17.09" text-anchor="middle" font-family="Arial" font-size="8.80px" fill="#1A1A1A" textLength="14.36px" lengthAdjust="spacingAndGlyphs">Yes</text></g>
</g><g clip-path="url(#c8-a136546a-4cc8-494d-95de-7c1b835574e2)">
<polyline points="84.77,571.24 84.77,568.50" fill="none" stroke-width="1.07" stroke="#333333" stroke-linejoin="round"/>
<polyline points="146.33,571.24 146.33,568.50" fill="none" stroke-width="1.07" stroke="#333333" stroke-linejoin="round"/>
<polyline points="207.90,571.24 207.90,568.50" fill="none" stroke-width="1.07" stroke="#333333" stroke-linejoin="round"/>
<polyline points="269.47,571.24 269.47,568.50" fill="none" stroke-width="1.07" stroke="#333333" stroke-linejoin="round"/>
<polyline points="331.03,571.24 331.03,568.50" fill="none" stroke-width="1.07" stroke="#333333" stroke-linejoin="round"/>
<g><text x="84.77" y="579.74" text-anchor="middle" font-family="Arial" font-size="8.80px" fill="#4D4D4D" textLength="56.25px" lengthAdjust="spacingAndGlyphs">Below College</text></g>
<g><text x="146.33" y="579.74" text-anchor="middle" font-family="Arial" font-size="8.80px" fill="#4D4D4D" textLength="29.84px" lengthAdjust="spacingAndGlyphs">College</text></g>
<g><text x="207.90" y="579.74" text-anchor="middle" font-family="Arial" font-size="8.80px" fill="#4D4D4D" textLength="34.73px" lengthAdjust="spacingAndGlyphs">Bachelor</text></g>
<g><text x="269.47" y="579.74" text-anchor="middle" font-family="Arial" font-size="8.80px" fill="#4D4D4D" textLength="26.90px" lengthAdjust="spacingAndGlyphs">Master</text></g>
<g><text x="331.03" y="579.74" text-anchor="middle" font-family="Arial" font-size="8.80px" fill="#4D4D4D" textLength="25.92px" lengthAdjust="spacingAndGlyphs">Doctor</text></g>
<polyline points="410.39,571.24 410.39,568.50" fill="none" stroke-width="1.07" stroke="#333333" stroke-linejoin="round"/>
<polyline points="471.96,571.24 471.96,568.50" fill="none" stroke-width="1.07" stroke="#333333" stroke-linejoin="round"/>
<polyline points="533.52,571.24 533.52,568.50" fill="none" stroke-width="1.07" stroke="#333333" stroke-linejoin="round"/>
<polyline points="595.09,571.24 595.09,568.50" fill="none" stroke-width="1.07" stroke="#333333" stroke-linejoin="round"/>
<polyline points="656.66,571.24 656.66,568.50" fill="none" stroke-width="1.07" stroke="#333333" stroke-linejoin="round"/>
<g><text x="410.39" y="579.74" text-anchor="middle" font-family="Arial" font-size="8.80px" fill="#4D4D4D" textLength="56.25px" lengthAdjust="spacingAndGlyphs">Below College</text></g>
<g><text x="471.96" y="579.74" text-anchor="middle" font-family="Arial" font-size="8.80px" fill="#4D4D4D" textLength="29.84px" lengthAdjust="spacingAndGlyphs">College</text></g>
<g><text x="533.52" y="579.74" text-anchor="middle" font-family="Arial" font-size="8.80px" fill="#4D4D4D" textLength="34.73px" lengthAdjust="spacingAndGlyphs">Bachelor</text></g>
<g><text x="595.09" y="579.74" text-anchor="middle" font-family="Arial" font-size="8.80px" fill="#4D4D4D" textLength="26.90px" lengthAdjust="spacingAndGlyphs">Master</text></g>
<g><text x="656.66" y="579.74" text-anchor="middle" font-family="Arial" font-size="8.80px" fill="#4D4D4D" textLength="25.92px" lengthAdjust="spacingAndGlyphs">Doctor</text></g>
<g><text x="42.89" y="442.49" text-anchor="end" font-family="Arial" font-size="8.80px" fill="#4D4D4D" textLength="19.58px" lengthAdjust="spacingAndGlyphs">5000</text></g>
<g><text x="42.89" y="311.78" text-anchor="end" font-family="Arial" font-size="8.80px" fill="#4D4D4D" textLength="24.48px" lengthAdjust="spacingAndGlyphs">10000</text></g>
<g><text x="42.89" y="181.06" text-anchor="end" font-family="Arial" font-size="8.80px" fill="#4D4D4D" textLength="24.48px" lengthAdjust="spacingAndGlyphs">15000</text></g>
<g><text x="42.89" y="50.34" text-anchor="end" font-family="Arial" font-size="8.80px" fill="#4D4D4D" textLength="24.48px" lengthAdjust="spacingAndGlyphs">20000</text></g>
<polyline points="45.09,439.34 47.83,439.34" fill="none" stroke-width="1.07" stroke="#333333" stroke-linejoin="round"/>
<polyline points="45.09,308.63 47.83,308.63" fill="none" stroke-width="1.07" stroke="#333333" stroke-linejoin="round"/>
<polyline points="45.09,177.91 47.83,177.91" fill="none" stroke-width="1.07" stroke="#333333" stroke-linejoin="round"/>
<polyline points="45.09,47.19 47.83,47.19" fill="none" stroke-width="1.07" stroke="#333333" stroke-linejoin="round"/>
<g><text transform="translate(13.36,295.45) rotate(-90.00)" text-anchor="middle" font-family="Arial" font-size="11.00px" textLength="74.61px" lengthAdjust="spacingAndGlyphs">MonthlyIncome</text></g>
<rect x="704.56" y="238.93" width="89.96" height="113.03" stroke-width="1.07" stroke-linecap="round" stroke-linejoin="round" fill="#FFFFFF"/>
<g><text x="710.04" y="253.45" font-family="Arial" font-size="11.00px" textLength="48.94px" lengthAdjust="spacingAndGlyphs">Education</text></g>
<rect x="710.04" y="260.09" width="17.28" height="17.28" stroke-width="1.07" stroke-linecap="round" stroke-linejoin="round" fill="#F2F2F2"/>
<polyline points="718.68,275.64 718.68,273.05" fill="none" stroke-width="1.07" stroke="#333333" stroke-linecap="round" stroke-linejoin="round"/>
<polyline points="718.68,264.41 718.68,261.82" fill="none" stroke-width="1.07" stroke="#333333" stroke-linecap="round" stroke-linejoin="round"/>
<rect x="712.20" y="264.41" width="12.96" height="8.64" stroke-width="1.07" stroke="#333333" stroke-linecap="round" stroke-linejoin="round" fill="#440154"/>
<polyline points="712.20,268.73 725.16,268.73" fill="none" stroke-width="1.07" stroke="#333333" stroke-linecap="round" stroke-linejoin="round"/>
<rect x="710.04" y="277.37" width="17.28" height="17.28" stroke-width="1.07" stroke-linecap="round" stroke-linejoin="round" fill="#F2F2F2"/>
<polyline points="718.68,292.92 718.68,290.33" fill="none" stroke-width="1.07" stroke="#333333" stroke-linecap="round" stroke-linejoin="round"/>
<polyline points="718.68,281.69 718.68,279.10" fill="none" stroke-width="1.07" stroke="#333333" stroke-linecap="round" stroke-linejoin="round"/>
<rect x="712.20" y="281.69" width="12.96" height="8.64" stroke-width="1.07" stroke="#333333" stroke-linecap="round" stroke-linejoin="round" fill="#3B528B"/>
<polyline points="712.20,286.01 725.16,286.01" fill="none" stroke-width="1.07" stroke="#333333" stroke-linecap="round" stroke-linejoin="round"/>
<rect x="710.04" y="294.65" width="17.28" height="17.28" stroke-width="1.07" stroke-linecap="round" stroke-linejoin="round" fill="#F2F2F2"/>
<polyline points="718.68,310.20 718.68,307.61" fill="none" stroke-width="1.07" stroke="#333333" stroke-linecap="round" stroke-linejoin="round"/>
<polyline points="718.68,298.97 718.68,296.38" fill="none" stroke-width="1.07" stroke="#333333" stroke-linecap="round" stroke-linejoin="round"/>
<rect x="712.20" y="298.97" width="12.96" height="8.64" stroke-width="1.07" stroke="#333333" stroke-linecap="round" stroke-linejoin="round" fill="#21908C"/>
<polyline points="712.20,303.29 725.16,303.29" fill="none" stroke-width="1.07" stroke="#333333" stroke-linecap="round" stroke-linejoin="round"/>
<rect x="710.04" y="311.93" width="17.28" height="17.28" stroke-width="1.07" stroke-linecap="round" stroke-linejoin="round" fill="#F2F2F2"/>
<polyline points="718.68,327.48 718.68,324.89" fill="none" stroke-width="1.07" stroke="#333333" stroke-linecap="round" stroke-linejoin="round"/>
<polyline points="718.68,316.25 718.68,313.66" fill="none" stroke-width="1.07" stroke="#333333" stroke-linecap="round" stroke-linejoin="round"/>
<rect x="712.20" y="316.25" width="12.96" height="8.64" stroke-width="1.07" stroke="#333333" stroke-linecap="round" stroke-linejoin="round" fill="#5DC863"/>
<polyline points="712.20,320.57 725.16,320.57" fill="none" stroke-width="1.07" stroke="#333333" stroke-linecap="round" stroke-linejoin="round"/>
<rect x="710.04" y="329.21" width="17.28" height="17.28" stroke-width="1.07" stroke-linecap="round" stroke-linejoin="round" fill="#F2F2F2"/>
<polyline points="718.68,344.76 718.68,342.17" fill="none" stroke-width="1.07" stroke="#333333" stroke-linecap="round" stroke-linejoin="round"/>
<polyline points="718.68,333.53 718.68,330.94" fill="none" stroke-width="1.07" stroke="#333333" stroke-linecap="round" stroke-linejoin="round"/>
<rect x="712.20" y="333.53" width="12.96" height="8.64" stroke-width="1.07" stroke="#333333" stroke-linecap="round" stroke-linejoin="round" fill="#FDE725"/>
<polyline points="712.20,337.85 725.16,337.85" fill="none" stroke-width="1.07" stroke="#333333" stroke-linecap="round" stroke-linejoin="round"/>
<g><text x="732.79" y="271.88" font-family="Arial" font-size="8.80px" textLength="56.25px" lengthAdjust="spacingAndGlyphs">Below College</text></g>
<g><text x="732.79" y="289.16" font-family="Arial" font-size="8.80px" textLength="29.84px" lengthAdjust="spacingAndGlyphs">College</text></g>
<g><text x="732.79" y="306.44" font-family="Arial" font-size="8.80px" textLength="34.73px" lengthAdjust="spacingAndGlyphs">Bachelor</text></g>
<g><text x="732.79" y="323.72" font-family="Arial" font-size="8.80px" textLength="26.90px" lengthAdjust="spacingAndGlyphs">Master</text></g>
<g><text x="732.79" y="341.00" font-family="Arial" font-size="8.80px" textLength="25.92px" lengthAdjust="spacingAndGlyphs">Doctor</text></g>
</g>
</svg>