<svg xmlns="http://www.w3.org/2000/svg" xmlns:xlink="http://www.w3.org/1999/xlink" class="httpgd" width="800.00" height="600.00" viewBox="0 0 800.00 600.00">
<defs>
<clipPath id="c0-6b08c76c-6291-43d7-92ae-d53c61424b7e"><rect x="0.00" y="0.00" width="800.00" height="600.00"/></clipPath>
<clipPath id="c1-6b08c76c-6291-43d7-92ae-d53c61424b7e"><rect x="38.03" y="22.40" width="348.27" height="546.11"/></clipPath>
<clipPath id="c2-6b08c76c-6291-43d7-92ae-d53c61424b7e"><rect x="0.00" y="0.00" width="800.00" height="600.00"/></clipPath>
<clipPath id="c3-6b08c76c-6291-43d7-92ae-d53c61424b7e"><rect x="391.78" y="22.40" width="348.27" height="546.11"/></clipPath>
<clipPath id="c4-6b08c76c-6291-43d7-92ae-d53c61424b7e"><rect x="0.00" y="0.00" width="800.00" height="600.00"/></clipPath>
<clipPath id="c5-6b08c76c-6291-43d7-92ae-d53c61424b7e"><rect x="38.03" y="5.48" width="348.27" height="16.92"/></clipPath>
<clipPath id="c6-6b08c76c-6291-43d7-92ae-d53c61424b7e"><rect x="0.00" y="0.00" width="800.00" height="600.00"/></clipPath>
<clipPath id="c7-6b08c76c-6291-43d7-92ae-d53c61424b7e"><rect x="391.78" y="5.48" width="348.27" height="16.92"/></clipPath>
<clipPath id="c8-6b08c76c-6291-43d7-92ae-d53c61424b7e"><rect x="0.00" y="0.00" width="800.00" height="600.00"/></clipPath>
</defs>
<rect width="100%" height="100%" stroke="none" fill="#FFFFFF"/>
<g clip-path="url(#c0-6b08c76c-6291-43d7-92ae-d53c61424b7e)">
<rect x="0.00" y="0.00" width="800.00" height="600.00" stroke-width="1.07" stroke="#FFFFFF" stroke-linecap="round" stroke-linejoin="round" fill="#FFFFFF"/>
</g><g clip-path="url(#c1-6b08c76c-6291-43d7-92ae-d53c61424b7e)">
<rect x="38.03" y="22.40" width="348.27" height="546.11" stroke-width="1.07" stroke-linecap="round" stroke-linejoin="round" fill="#EBEBEB"/>
<polyline points="38.03,490.98 386.30,490.98" fill="none" stroke-width="0.53" stroke="#FFFFFF" stroke-linejoin="round"/>
<polyline points="38.03,385.57 386.30,385.57" fill="none" stroke-width="0.53" stroke="#FFFFFF" stroke-linejoin="round"/>
<polyline points="38.03,280.17 386.30,280.17" fill="none" stroke-width="0.53" stroke="#FFFFFF" stroke-linejoin="round"/>
<polyline points="38.03,174.76 386.30,174.76" fill="none" stroke-width="0.53" stroke="#FFFFFF" stroke-linejoin="round"/>
<polyline points="38.03,69.36 386.30,69.36" fill="none" stroke-width="0.53" stroke="#FFFFFF" stroke-linejoin="round"/>
<polyline points="112.61,568.50 112.61,22.40" fill="none" stroke-width="0.53" stroke="#FFFFFF" stroke-linejoin="round"/>
<polyline points="212.17,568.50 212.17,22.40" fill="none" stroke-width="0.53" stroke="#FFFFFF" stroke-linejoin="round"/>
<polyline points="311.73,568.50 311.73,22.40" fill="none" stroke-width="0.53" stroke="#FFFFFF" stroke-linejoin="round"/>
<polyline points="38.03,543.68 386.30,543.68" fill="none" stroke-width="1.07" stroke="#FFFFFF" stroke-linejoin="round"/>
<polyline points="38.03,438.28 386.30,438.28" fill="none" stroke-width="1.07" stroke="#FFFFFF" stroke-linejoin="round"/>
<polyline points="38.03,332.87 386.30,332.87" fill="none" stroke-width="1.07" stroke="#FFFFFF" stroke-linejoin="round"/>
<polyline points="38.03,227.46 386.30,227.46" fill="none" stroke-width="1.07" stroke="#FFFFFF" stroke-linejoin="round"/>
<polyline points="38.03,122.06 386.30,122.06" fill="none" stroke-width="1.07" stroke="#FFFFFF" stroke-linejoin="round"/>
<polyline points="62.82,568.50 62.82,22.40" fill="none" stroke-width="1.07" stroke="#FFFFFF" stroke-linejoin="round"/>
<polyline points="162.39,568.50 162.39,22.40" fill="none" stroke-width="1.07" stroke="#FFFFFF" stroke-linejoin="round"/>
<polyline points="261.95,568.50 261.95,22.40" fill="none" stroke-width="1.07" stroke="#FFFFFF" stroke-linejoin="round"/>
<polyline points="361.51,568.50 361.51,22.40" fill="none" stroke-width="1.07" stroke="#FFFFFF" stroke-linejoin="round"/>
<rect x="53.86" y="47.22" width="17.92" height="496.46" stroke-width="1.07" stroke-linecap="square" stroke-miterlimit="10.00" fill="#440154"/>
<rect x="73.78" y="219.03" width="17.92" height="324.65" stroke-width="1.07" stroke-linecap="square" stroke-miterlimit="10.00" fill="#481A6C"/>
<rect x="93.69" y="404.55" width="17.92" height="139.14" stroke-width="1.07" stroke-linecap="square" stroke-miterlimit="10.00" fill="#472F7D"/>
<rect x="113.60" y="498.36" width="17.92" height="45.32" stroke-width="1.07" stroke-linecap="square" stroke-miterlimit="10.00" fill="#414487"/>
<rect x="133.51" y="484.65" width="17.92" height="59.03" stroke-width="1.07" stroke-linecap="square" stroke-miterlimit="10.00" fill="#39568C"/>
<rect x="153.43" y="498.36" width="17.92" height="45.32" stroke-width="1.07" stroke-linecap="square" stroke-miterlimit="10.00" fill="#31688E"/>
<rect x="173.34" y="516.28" width="17.92" height="27.41" stroke-width="1.07" stroke-linecap="square" stroke-miterlimit="10.00" fill="#2A788E"/>
<rect x="193.25" y="480.44" width="17.92" height="63.24" stroke-width="1.07" stroke-linecap="square" stroke-miterlimit="10.00" fill="#23888E"/>
<rect x="213.16" y="524.71" width="17.92" height="18.97" stroke-width="1.07" stroke-linecap="square" stroke-miterlimit="10.00" fill="#1F988B"/>
<rect x="233.08" y="529.98" width="17.92" height="13.70" stroke-width="1.07" stroke-linecap="square" stroke-miterlimit="10.00" fill="#22A884"/>
<rect x="252.99" y="538.41" width="17.92" height="5.27" stroke-width="1.07" stroke-linecap="square" stroke-miterlimit="10.00" fill="#35B779"/>
<rect x="272.90" y="520.49" width="17.92" height="23.19" stroke-width="1.07" stroke-linecap="square" stroke-miterlimit="10.00" fill="#54C568"/>
<rect x="292.81" y="533.14" width="17.92" height="10.54" stroke-width="1.07" stroke-linecap="square" stroke-miterlimit="10.00" fill="#7AD151"/>
<rect x="312.73" y="535.25" width="17.92" height="8.43" stroke-width="1.07" stroke-linecap="square" stroke-miterlimit="10.00" fill="#A5DB36"/>
<rect x="332.64" y="535.25" width="17.92" height="8.43" stroke-width="1.07" stroke-linecap="square" stroke-miterlimit="10.00" fill="#D2E21B"/>
<rect x="352.55" y="533.14" width="17.92" height="10.54" stroke-width="1.07" stroke-linecap="square" stroke-miterlimit="10.00" fill="#FDE725"/>
</g><g clip-path="url(#c3-6b08c76c-6291-43d7-92ae-d53c61424b7e)">
<rect x="391.78" y="22.40" width="348.27" height="546.11" stroke-width="1.07" stroke-linecap="round" stroke-linejoin="round" fill="#EBEBEB"/>
<polyline points="391.78,490.98 740.05,490.98" fill="none" stroke-width="0.53" stroke="#FFFFFF" stroke-linejoin="round"/>
<polyline points="391.78,385.57 740.05,385.57" fill="none" stroke-width="0.53" stroke="#FFFFFF" stroke-linejoin="round"/>
<polyline points="391.78,280.17 740.05,280.17" fill="none" stroke-width="0.53" stroke="#FFFFFF" stroke-linejoin="round"/>
<polyline points="391.78,174.76 740.05,174.76" fill="none" stroke-width="0.53" stroke="#FFFFFF" stroke-linejoin="round"/>
<polyline points="391.78,69.36 740.05,69.36" fill="none" stroke-width="0.53" stroke="#FFFFFF" stroke-linejoin="round"/>
<polyline points="466.35,568.50 466.35,22.40" fill="none" stroke-width="0.53" stroke="#FFFFFF" stroke-linejoin="round"/>
<polyline points="565.92,568.50 565.92,22.40" fill="none" stroke-width="0.53" stroke="#FFFFFF" stroke-linejoin="round"/>
<polyline points="665.48,568.50 665.48,22.40" fill="none" stroke-width="0.53" stroke="#FFFFFF" stroke-linejoin="round"/>
<polyline points="391.78,543.68 740.05,543.68" fill="none" stroke-width="1.07" stroke="#FFFFFF" stroke-linejoin="round"/>
<polyline points="391.78,438.28 740.05,438.28" fill="none" stroke-width="1.07" stroke="#FFFFFF" stroke-linejoin="round"/>
<polyline points="391.78,332.87 740.05,332.87" fill="none" stroke-width="1.07" stroke="#FFFFFF" stroke-linejoin="round"/>
<polyline points="391.78,227.46 740.05,227.46" fill="none" stroke-width="1.07" stroke="#FFFFFF" stroke-linejoin="round"/>
<polyline points="391.78,122.06 740.05,122.06" fill="none" stroke-width="1.07" stroke="#FFFFFF" stroke-linejoin="round"/>
<polyline points="416.57,568.50 416.57,22.40" fill="none" stroke-width="1.07" stroke="#FFFFFF" stroke-linejoin="round"/>
<polyline points="516.14,568.50 516.14,22.40" fill="none" stroke-width="1.07" stroke="#FFFFFF" stroke-linejoin="round"/>
<polyline points="615.70,568.50 615.70,22.40" fill="none" stroke-width="1.07" stroke="#FFFFFF" stroke-linejoin="round"/>
<polyline points="715.26,568.50 715.26,22.40" fill="none" stroke-width="1.07" stroke="#FFFFFF" stroke-linejoin="round"/>
<rect x="407.61" y="427.73" width="17.92" height="115.95" stroke-width="1.07" stroke-linecap="square" stroke-miterlimit="10.00" fill="#440154"/>
<rect x="427.53" y="492.03" width="17.92" height="51.65" stroke-width="1.07" stroke-linecap="square" stroke-miterlimit="10.00" fill="#481A6C"/>
<rect x="447.44" y="515.22" width="17.92" height="28.46" stroke-width="1.07" stroke-linecap="square" stroke-miterlimit="10.00" fill="#472F7D"/>
<rect x="467.35" y="534.19" width="17.92" height="9.49" stroke-width="1.07" stroke-linecap="square" stroke-miterlimit="10.00" fill="#414487"/>
<rect x="487.26" y="538.41" width="17.92" height="5.27" stroke-width="1.07" stroke-linecap="square" stroke-miterlimit="10.00" fill="#39568C"/>
<rect x="507.18" y="541.57" width="17.92" height="2.11" stroke-width="1.07" stroke-linecap="square" stroke-miterlimit="10.00" fill="#31688E"/>
<rect x="527.09" y="537.36" width="17.92" height="6.32" stroke-width="1.07" stroke-linecap="square" stroke-miterlimit="10.00" fill="#2A788E"/>
<rect x="547.00" y="526.82" width="17.92" height="16.86" stroke-width="1.07" stroke-linecap="square" stroke-miterlimit="10.00" fill="#23888E"/>
<rect x="586.82" y="539.46" width="17.92" height="4.22" stroke-width="1.07" stroke-linecap="square" stroke-miterlimit="10.00" fill="#22A884"/>
<rect x="606.74" y="542.63" width="17.92" height="1.05" stroke-width="1.07" stroke-linecap="square" stroke-miterlimit="10.00" fill="#35B779"/>
<rect x="626.65" y="541.57" width="17.92" height="2.11" stroke-width="1.07" stroke-linecap="square" stroke-miterlimit="10.00" fill="#54C568"/>
<rect x="666.47" y="541.57" width="17.92" height="2.11" stroke-width="1.07" stroke-linecap="square" stroke-miterlimit="10.00" fill="#A5DB36"/>
<rect x="686.39" y="542.63" width="17.92" height="1.05" stroke-width="1.07" stroke-linecap="square" stroke-miterlimit="10.00" fill="#D2E21B"/>
<rect x="706.30" y="540.52" width="17.92" height="3.16" stroke-width="1.07" stroke-linecap="square" stroke-miterlimit="10.00" fill="#FDE725"/>
</g><g clip-path="url(#c5-6b08c76c-6291-43d7-92ae-d53c61424b7e)">
<rect x="38.03" y="5.48" width="348.27" height="16.92" stroke-width="1.07" stroke-linecap="round" stroke-linejoin="round" fill="#D9D9D9"/>
<g><text x="212.17" y="17.09" text-anchor="middle" font-family="Arial" font-size="8.80px" fill="#1A1A1A" textLength="11.25px" lengthAdjust="spacingAndGlyphs">No</text></g>
</g><g clip-path="url(#c7-6b08c76c-6291-43d7-92ae-d53c61424b7e)">
<rect x="391.78" y="5.48" width="348.27" height="16.92" stroke-width="1.07" stroke-linecap="round" stroke-linejoin="round" fill="#D9D9D9"/>
<g><text x="565.92" y="17.09" text-anchor="middle" font-family="Arial" font-size="8.80px" fill="#1A1A1A" textLength="14.36px" lengthAdjust="spacingAndGlyphs">Yes</text></g>
</g><g clip-path="url(#c8-6b08c76c-6291-43d7-92ae-d53c61424b7e)">
<polyline points="62.82,571.24 62.82,568.50" fill="none" stroke-width="1.07" stroke="#333333" stroke-linejoin="round"/>
<polyline points="162.39,571.24 162.39,568.50" fill="none" stroke-width="1.07" stroke="#333333" stroke-linejoin="round"/>
<polyline points="261.95,571.24 261.95,568.50" fill="none" stroke-width="1.07" stroke="#333333" stroke-linejoin="round"/>
<polyline points="361.51,571.24 361.51,568.50" fill="none" stroke-width="1.07" stroke="#333333" stroke-linejoin="round"/>
<g><text x="62.82" y="579.74" text-anchor="middle" font-family="Arial" font-size="8.80px" fill="#4D4D4D" textLength="4.90px" lengthAdjust="spacingAndGlyphs">0</text></g>
<g><text x="162.39" y="579.74" text-anchor="middle" font-family="Arial" font-size="8.80px" fill="#4D4D4D" textLength="4.90px" lengthAdjust="spacingAndGlyphs">5</text></g>
<g><text x="261.95" y="579.74" text-anchor="middle" font-family="Arial" font-size="8.80px" fill="#4D4D4D" textLength="9.79px" lengthAdjust="spacingAndGlyphs">10</text></g>
<g><text x="361.51" y="579.74" text-anchor="middle" font-family="Arial" font-size="8.80px" fill="#4D4D4D" textLength="9.79px" lengthAdjust="spacingAndGlyphs">15</text></g>
<polyline points="416.57,571.24 416.57,568.50" fill="none" stroke-width="1.07" stroke="#333333" stroke-linejoin="round"/>
<polyline points="516.14,571.24 516.14,568.50" fill="none" stroke-width="1.07" stroke="#333333" stroke-linejoin="round"/>
<polyline points="615.70,571.24 615.70,568.50" fill="none" stroke-width="1.07" stroke="#333333" stroke-linejoin="round"/>
<polyline points="715.26,571.24 715.26,568.50" fill="none" stroke-width="1.07" stroke="#333333" stroke-linejoin="round"/>
<g><text x="416.57" y="579.74" text-anchor="middle" font-family="Arial" font-size="8.80px" fill="#4D4D4D" textLength="4.90px" lengthAdjust="spacingAndGlyphs">0</text></g>
<g><text x="516.14" y="579.74" text-anchor="middle" font-family="Arial" font-size="8.80px" fill="#4D4D4D" textLength="4.90px" lengthAdjust="spacingAndGlyphs">5</text></g>
<g><text x="615.70" y="579.74" text-anchor="middle" font-family="Arial" font-size="8.80px" fill="#4D4D4D" textLength="9.79px" lengthAdjust="spacingAndGlyphs">10</text></g>
<g><text x="715.26" y="579.74" text-anchor="middle" font-family="Arial" font-size="8.80px" fill="#4D4D4D" textLength="9.79px" lengthAdjust="spacingAndGlyphs">15</text></g>
<g><text x="33.10" y="546.83" text-anchor="end" font-family="Arial" font-size="8.80px" fill="#4D4D4D" textLength="4.90px" lengthAdjust="spacingAndGlyphs">0</text></g>
<g><text x="33.10" y="441.43" text-anchor="end" font-family="Arial" font-size="8.80px" fill="#4D4D4D" textLength="14.69px" lengthAdjust="spacingAndGlyphs">100</text></g>
<g><text x="33.10" y="336.02" text-anchor="end" font-family="Arial" font-size="8.80px" fill="#4D4D4D" textLength="14.69px" lengthAdjust="spacingAndGlyphs">200</text></g>
<g><text x="33.10" y="230.61" text-anchor="end" font-family="Arial" font-size="8.80px" fill="#4D4D4D" textLength="14.69px" lengthAdjust="spacingAndGlyphs">300</text></g>
<g><text x="33.10" y="125.21" text-anchor="end" font-family="Arial" font-size="8.80px" fill="#4D4D4D" textLength="14.69px" lengthAdjust="spacingAndGlyphs">400</text></g>
<polyline points="35.29,543.68 38.03,543.68" fill="none" stroke-width="1.07" stroke="#333333" stroke-linejoin="round"/>
<polyline points="35.29,438.28 38.03,438.28" fill="none" stroke-width="1.07" stroke="#333333" stroke-linejoin="round"/>
<polyline points="35.29,332.87 38.03,332.87" fill="none" stroke-width="1.07" stroke="#333333" stroke-linejoin="round"/>
<polyline points="35.29,227.46 38.03,227.46" fill="none" stroke-width="1.07" stroke="#333333" stroke-linejoin="round"/>
<polyline points="35.29,122.06 38.03,122.06" fill="none" stroke-width="1.07" stroke="#333333" stroke-linejoin="round"/>
<g><text x="389.04" y="592.20" text-anchor="middle" font-family="Arial" font-size="11.00px" textLength="135.38px" lengthAdjust="spacingAndGlyphs">Years Since Last Promotion</text></g>
<g><text transform="translate(13.36,295.45) rotate(-90.00)" text-anchor="middle" font-family="Arial" font-size="11.00px" textLength="81.35px" lengthAdjust="spacingAndGlyphs">Employee Count</text></g>
<rect x="751.01" y="143.89" width="43.51" height="303.11" stroke-width="1.07" stroke-linecap="round" stroke-linejoin="round" fill="#FFFFFF"/>
<g><text x="756.49" y="158.41" font-family="Arial" font-size="11.00px" textLength="27.73px" lengthAdjust="spacingAndGlyphs">Years</text></g>
<rect x="756.49" y="165.05" width="17.28" height="17.28" stroke-width="1.07" stroke-linecap="round" stroke-linejoin="round" fill="#F2F2F2"/>
<rect x="757.20" y="165.76" width="15.86" height="15.86" stroke-width="1.07" stroke-linecap="square" stroke-miterlimit="10.00" fill="#440154"/>
<rect x="756.49" y="182.33" width="17.28" height="17.28" stroke-width="1.07" stroke-linecap="round" stroke-linejoin="round" fill="#F2F2F2"/>
<rect x="757.20" y="183.04" width="15.86" height="15.86" stroke-width="1.07" stroke-linecap="square" stroke-miterlimit="10.00" fill="#481A6C"/>
<rect x="756.49" y="199.61" width="17.28" height="17.28" stroke-width="1.07" stroke-linecap="round" stroke-linejoin="round" fill="#F2F2F2"/>
<rect x="757.20" y="200.32" width="15.86" height="15.86" stroke-width="1.07" stroke-linecap="square" stroke-miterlimit="10.00" fill="#472F7D"/>
<rect x="756.49" y="216.89" width="17.28" height="17.28" stroke-width="1.07" stroke-linecap="round" stroke-linejoin="round" fill="#F2F2F2"/>
<rect x="757.20" y="217.60" width="15.86" height="15.86" stroke-width="1.07" stroke-linecap="square" stroke-miterlimit="10.00" fill="#414487"/>
<rect x="756.49" y="234.17" width="17.28" height="17.28" stroke-width="1.07" stroke-linecap="round" stroke-linejoin="round" fill="#F2F2F2"/>
<rect x="757.20" y="234.88" width="15.86" height="15.86" stroke-width="1.07" stroke-linecap="square" stroke-miterlimit="10.00" fill="#39568C"/>
<rect x="756.49" y="251.45" width="17.28" height="17.28" stroke-width="1.07" stroke-linecap="round" stroke-linejoin="round" fill="#F2F2F2"/>
<rect x="757.20" y="252.16" width="15.86" height="15.86" stroke-width="1.07" stroke-linecap="square" stroke-miterlimit="10.00" fill="#31688E"/>
<rect x="756.49" y="268.73" width="17.28" height="17.28" stroke-width="1.07" stroke-linecap="round" stroke-linejoin="round" fill="#F2F2F2"/>
<rect x="757.20" y="269.44" width="15.86" height="15.86" stroke-width="1.07" stroke-linecap="square" stroke-miterlimit="10.00" fill="#2A788E"/>
<rect x="756.49" y="286.01" width="17.28" height="17.28" stroke-width="1.07" stroke-linecap="round" stroke-linejoin="round" fill="#F2F2F2"/>
<rect x="757.20" y="286.72" width="15.86" height="15.86" stroke-width="1.07" stroke-linecap="square" stroke-miterlimit="10.00" fill="#23888E"/>
<rect x="756.49" y="303.29" width="17.28" height="17.28" stroke-width="1.07" stroke-linecap="round" stroke-linejoin="round" fill="#F2F2F2"/>
<rect x="757.20" y="304.00" width="15.86" height="15.86" stroke-width="1.07" stroke-linecap="square" stroke-miterlimit="10.00" fill="#1F988B"/>
<rect x="756.49" y="320.57" width="17.28" height="17.28" stroke-width="1.07" stroke-linecap="round" stroke-linejoin="round" fill="#F2F2F2"/>
<rect x="757.20" y="321.28" width="15.86" height="15.86" stroke-width="1.07" stroke-linecap="square" stroke-miterlimit="10.00" fill="#22A884"/>
<rect x="756.49" y="337.85" width="17.28" height="17.28" stroke-width="1.07" stroke-linecap="round" stroke-linejoin="round" fill="#F2F2F2"/>
<rect x="757.20" y="338.56" width="15.86" height="15.86" stroke-width="1.07" stroke-linecap="square" stroke-miterlimit="10.00" fill="#35B779"/>
<rect x="756.49" y="355.13" width="17.28" height="17.28" stroke-width="1.07" stroke-linecap="round" stroke-linejoin="round" fill="#F2F2F2"/>
<rect x="757.20" y="355.84" width="15.86" height="15.86" stroke-width="1.07" stroke-linecap="square" stroke-miterlimit="10.00" fill="#54C568"/>
<rect x="756.49" y="372.41" width="17.28" height="17.28" stroke-width="1.07" stroke-linecap="round" stroke-linejoin="round" fill="#F2F2F2"/>
<rect x="757.20" y="373.12" width="15.86" height="15.86" stroke-width="1.07" stroke-linecap="square" stroke-miterlimit="10.00" fill="#7AD151"/>
<rect x="756.49" y="389.69" width="17.28" height="17.28" stroke-width="1.07" stroke-linecap="round" stroke-linejoin="round" fill="#F2F2F2"/>
<rect x="757.20" y="390.40" width="15.86" height="15.86" stroke-width="1.07" stroke-linecap="square" stroke-miterlimit="10.00" fill="#A5DB36"/>
<rect x="756.49" y="406.97" width="17.28" height="17.28" stroke-width="1.07" stroke-linecap="round" stroke-linejoin="round" fill="#F2F2F2"/>
<rect x="757.20" y="407.68" width="15.86" height="15.86" stroke-width="1.07" stroke-linecap="square" stroke-miterlimit="10.00" fill="#D2E21B"/>
<rect x="756.49" y="424.25" width="17.28" height="17.28" stroke-width="1.07" stroke-linecap="round" stroke-linejoin="round" fill="#F2F2F2"/>
<rect x="757.20" y="424.96" width="15.86" height="15.86" stroke-width="1.07" stroke-linecap="square" stroke-miterlimit="10.00" fill="#FDE725"/>
<g><text x="779.25" y="176.84" font-family="Arial" font-size="8.80px" textLength="4.90px" lengthAdjust="spacingAndGlyphs">0</text></g>
<g><text x="779.25" y="194.12" font-family="Arial" font-size="8.80px" textLength="4.90px" lengthAdjust="spacingAndGlyphs">1</text></g>
<g><text x="779.25" y="211.40" font-family="Arial" font-size="8.80px" textLength="4.90px" lengthAdjust="spacingAndGlyphs">2</text></g>
<g><text x="779.25" y="228.68" font-family="Arial" font-size="8.80px" textLength="4.90px" lengthAdjust="spacingAndGlyphs">3</text></g>
<g><text x="779.25" y="245.96" font-family="Arial" font-size="8.80px" textLength="4.90px" lengthAdjust="spacingAndGlyphs">4</text></g>
<g><text x="779.25" y="263.24" font-family="Arial" font-size="8.80px" textLength="4.90px" lengthAdjust="spacingAndGlyphs">5</text></g>
<g><text x="779.25" y="280.52" font-family="Arial" font-size="8.80px" textLength="4.90px" lengthAdjust="spacingAndGlyphs">6</text></g>
<g><text x="779.25" y="297.80" font-family="Arial" font-size="8.80px" textLength="4.90px" lengthAdjust="spacingAndGlyphs">7</text></g>
<g><text x="779.25" y="315.08" font-family="Arial" font-size="8.80px" textLength="4.90px" lengthAdjust="spacingAndGlyphs">8</text></g>
<g><text x="779.25" y="332.36" font-family="Arial" font-size="8.80px" textLength="4.90px" lengthAdjust="spacingAndGlyphs">9</text></g>
<g><text x="779.25" y="349.64" font-family="Arial" font-size="8.80px" textLength="9.79px" lengthAdjust="spacingAndGlyphs">10</text></g>
<g><text x="779.25" y="366.92" font-family="Arial" font-size="8.80px" textLength="9.14px" lengthAdjust="spacingAndGlyphs">11</text></g>
<g><text x="779.25" y="384.20" font-family="Arial" font-size="8.80px" textLength="9.79px" lengthAdjust="spacingAndGlyphs">12</text></g>
<g><text x="779.25" y="401.48" font-family="Arial" font-size="8.80px" textLength="9.79px" lengthAdjust="spacingAndGlyphs">13</text></g>
<g><text x="779.25" y="418.76" font-family="Arial" font-size="8.80px" textLength="9.79px" lengthAdjust="spacingAndGlyphs">14</text></g>
<g><text x="779.25" y="436.04" font-family="Arial" font-size="8.80px" textLength="9.79px" lengthAdjust="spacingAndGlyphs">15</text></g>
</g>
</svg>