<svg xmlns="http://www.w3.org/2000/svg" xmlns:xlink="http://www.w3.org/1999/xlink" class="httpgd" width="800.00" height="600.00" viewBox="0 0 800.00 600.00">
<defs>
<clipPath id="c0-0d30f6ed-db66-47f3-aef7-08716c87b18e"><rect x="0.00" y="0.00" width="800.00" height="600.00"/></clipPath>
<clipPath id="c1-0d30f6ed-db66-47f3-aef7-08716c87b18e"><rect x="38.03" y="22.40" width="329.25" height="546.11"/></clipPath>
<clipPath id="c2-0d30f6ed-db66-47f3-aef7-08716c87b18e"><rect x="0.00" y="0.00" width="800.00" height="600.00"/></clipPath>
<clipPath id="c3-0d30f6ed-db66-47f3-aef7-08716c87b18e"><rect x="372.77" y="22.40" width="329.25" height="546.11"/></clipPath>
<clipPath id="c4-0d30f6ed-db66-47f3-aef7-08716c87b18e"><rect x="0.00" y="0.00" width="800.00" height="600.00"/></clipPath>
<clipPath id="c5-0d30f6ed-db66-47f3-aef7-08716c87b18e"><rect x="38.03" y="5.48" width="329.25" height="16.92"/></clipPath>
<clipPath id="c6-0d30f6ed-db66-47f3-aef7-08716c87b18e"><rect x="0.00" y="0.00" width="800.00" height="600.00"/></clipPath>
<clipPath id="c7-0d30f6ed-db66-47f3-aef7-08716c87b18e"><rect x="372.77" y="5.48" width="329.25" height="16.92"/></clipPath>
<clipPath id="c8-0d30f6ed-db66-47f3-aef7-08716c87b18e"><rect x="0.00" y="0.00" width="800.00" height="600.00"/></clipPath>
</defs>
<rect width="100%" height="100%" stroke="none" fill="#FFFFFF"/>
<g clip-path="url(#c0-0d30f6ed-db66-47f3-aef7-08716c87b18e)">
<rect x="0.00" y="0.00" width="800.00" height="600.00" stroke-width="1.07" stroke="#FFFFFF" stroke-linecap="round" stroke-linejoin="round" fill="#FFFFFF"/>
</g><g clip-path="url(#c1-0d30f6ed-db66-47f3-aef7-08716c87b18e)">
<rect x="38.03" y="22.40" width="329.25" height="546.11" stroke-width="1.07" stroke-linecap="round" stroke-linejoin="round" fill="#EBEBEB"/>
<polyline points="38.03,472.76 367.29,472.76" fill="none" stroke-width="0.53" stroke="#FFFFFF" stroke-linejoin="round"/>
<polyline points="38.03,330.91 367.29,330.91" fill="none" stroke-width="0.53" stroke="#FFFFFF" stroke-linejoin="round"/>
<polyline points="38.03,189.07 367.29,189.07" fill="none" stroke-width="0.53" stroke="#FFFFFF" stroke-linejoin="round"/>
<polyline points="38.03,47.22 367.29,47.22" fill="none" stroke-width="0.53" stroke="#FFFFFF" stroke-linejoin="round"/>
<polyline points="92.89,568.50 92.89,22.40" fill="none" stroke-width="0.53" stroke="#FFFFFF" stroke-linejoin="round"/>
<polyline points="166.07,568.50 166.07,22.40" fill="none" stroke-width="0.53" stroke="#FFFFFF" stroke-linejoin="round"/>
<polyline points="239.25,568.50 239.25,22.40" fill="none" stroke-width="0.53" stroke="#FFFFFF" stroke-linejoin="round"/>
<polyline points="312.44,568.50 312.44,22.40" fill="none" stroke-width="0.53" stroke="#FFFFFF" stroke-linejoin="round"/>
<polyline points="38.03,543.68 367.29,543.68" fill="none" stroke-width="1.07" stroke="#FFFFFF" stroke-linejoin="round"/>
<polyline points="38.03,401.83 367.29,401.83" fill="none" stroke-width="1.07" stroke="#FFFFFF" stroke-linejoin="round"/>
<polyline points="38.03,259.99 367.29,259.99" fill="none" stroke-width="1.07" stroke="#FFFFFF" stroke-linejoin="round"/>
<polyline points="38.03,118.14 367.29,118.14" fill="none" stroke-width="1.07" stroke="#FFFFFF" stroke-linejoin="round"/>
<polyline points="56.29,568.50 56.29,22.40" fill="none" stroke-width="1.07" stroke="#FFFFFF" stroke-linejoin="round"/>
<polyline points="129.48,568.50 129.48,22.40" fill="none" stroke-width="1.07" stroke="#FFFFFF" stroke-linejoin="round"/>
<polyline points="202.66,568.50 202.66,22.40" fill="none" stroke-width="1.07" stroke="#FFFFFF" stroke-linejoin="round"/>
<polyline points="275.84,568.50 275.84,22.40" fill="none" stroke-width="1.07" stroke="#FFFFFF" stroke-linejoin="round"/>
<polyline points="349.03,568.50 349.03,22.40" fill="none" stroke-width="1.07" stroke="#FFFFFF" stroke-linejoin="round"/>
<rect x="53.00" y="464.25" width="6.59" height="79.43" stroke-width="1.07" stroke-linecap="square" stroke-miterlimit="10.00" fill="#440154"/>
<rect x="60.32" y="225.95" width="6.59" height="317.73" stroke-width="1.07" stroke-linecap="square" stroke-miterlimit="10.00" fill="#460B5E"/>
<rect x="67.64" y="259.99" width="6.59" height="283.69" stroke-width="1.07" stroke-linecap="square" stroke-miterlimit="10.00" fill="#481668"/>
<rect x="74.96" y="237.29" width="6.59" height="306.39" stroke-width="1.07" stroke-linecap="square" stroke-miterlimit="10.00" fill="#481F70"/>
<rect x="82.27" y="285.52" width="6.59" height="258.16" stroke-width="1.07" stroke-linecap="square" stroke-miterlimit="10.00" fill="#482878"/>
<rect x="89.59" y="47.22" width="6.59" height="496.46" stroke-width="1.07" stroke-linecap="square" stroke-miterlimit="10.00" fill="#46317E"/>
<rect x="96.91" y="353.61" width="6.59" height="190.07" stroke-width="1.07" stroke-linecap="square" stroke-miterlimit="10.00" fill="#443A83"/>
<rect x="104.23" y="319.56" width="6.59" height="224.12" stroke-width="1.07" stroke-linecap="square" stroke-miterlimit="10.00" fill="#414187"/>
<rect x="111.55" y="342.26" width="6.59" height="201.42" stroke-width="1.07" stroke-linecap="square" stroke-miterlimit="10.00" fill="#3E4A89"/>
<rect x="118.87" y="333.75" width="6.59" height="209.93" stroke-width="1.07" stroke-linecap="square" stroke-miterlimit="10.00" fill="#3B528B"/>
<rect x="126.18" y="254.32" width="6.59" height="289.37" stroke-width="1.07" stroke-linecap="square" stroke-miterlimit="10.00" fill="#375A8C"/>
<rect x="133.50" y="458.57" width="6.59" height="85.11" stroke-width="1.07" stroke-linecap="square" stroke-miterlimit="10.00" fill="#34618D"/>
<rect x="140.82" y="503.96" width="6.59" height="39.72" stroke-width="1.07" stroke-linecap="square" stroke-miterlimit="10.00" fill="#31688E"/>
<rect x="148.14" y="481.27" width="6.59" height="62.41" stroke-width="1.07" stroke-linecap="square" stroke-miterlimit="10.00" fill="#2E6F8E"/>
<rect x="155.46" y="498.29" width="6.59" height="45.39" stroke-width="1.07" stroke-linecap="square" stroke-miterlimit="10.00" fill="#2B758E"/>
<rect x="162.78" y="489.78" width="6.59" height="53.90" stroke-width="1.07" stroke-linecap="square" stroke-miterlimit="10.00" fill="#287C8E"/>
<rect x="170.09" y="512.47" width="6.59" height="31.21" stroke-width="1.07" stroke-linecap="square" stroke-miterlimit="10.00" fill="#26828E"/>
<rect x="177.41" y="520.99" width="6.59" height="22.70" stroke-width="1.07" stroke-linecap="square" stroke-miterlimit="10.00" fill="#23898E"/>
<rect x="184.73" y="509.64" width="6.59" height="34.04" stroke-width="1.07" stroke-linecap="square" stroke-miterlimit="10.00" fill="#21908C"/>
<rect x="192.05" y="515.31" width="6.59" height="28.37" stroke-width="1.07" stroke-linecap="square" stroke-miterlimit="10.00" fill="#1F978B"/>
<rect x="199.37" y="469.92" width="6.59" height="73.76" stroke-width="1.07" stroke-linecap="square" stroke-miterlimit="10.00" fill="#1F9E89"/>
<rect x="206.69" y="506.80" width="6.59" height="36.88" stroke-width="1.07" stroke-linecap="square" stroke-miterlimit="10.00" fill="#20A486"/>
<rect x="214.00" y="503.96" width="6.59" height="39.72" stroke-width="1.07" stroke-linecap="square" stroke-miterlimit="10.00" fill="#25AB82"/>
<rect x="221.32" y="540.84" width="6.59" height="2.84" stroke-width="1.07" stroke-linecap="square" stroke-miterlimit="10.00" fill="#2CB17E"/>
<rect x="228.64" y="529.50" width="6.59" height="14.18" stroke-width="1.07" stroke-linecap="square" stroke-miterlimit="10.00" fill="#35B779"/>
<rect x="235.96" y="532.33" width="6.59" height="11.35" stroke-width="1.07" stroke-linecap="square" stroke-miterlimit="10.00" fill="#40BD72"/>
<rect x="243.28" y="532.33" width="6.59" height="11.35" stroke-width="1.07" stroke-linecap="square" stroke-miterlimit="10.00" fill="#4EC36B"/>
<rect x="250.60" y="538.01" width="6.59" height="5.67" stroke-width="1.07" stroke-linecap="square" stroke-miterlimit="10.00" fill="#5DC863"/>
<rect x="265.23" y="538.01" width="6.59" height="5.67" stroke-width="1.07" stroke-linecap="square" stroke-miterlimit="10.00" fill="#6DCD59"/>
<rect x="272.55" y="540.84" width="6.59" height="2.84" stroke-width="1.07" stroke-linecap="square" stroke-miterlimit="10.00" fill="#7DD34F"/>
<rect x="279.87" y="538.01" width="6.59" height="5.67" stroke-width="1.07" stroke-linecap="square" stroke-miterlimit="10.00" fill="#8FD744"/>
<rect x="287.19" y="538.01" width="6.59" height="5.67" stroke-width="1.07" stroke-linecap="square" stroke-miterlimit="10.00" fill="#A1DA38"/>
<rect x="294.51" y="532.33" width="6.59" height="11.35" stroke-width="1.07" stroke-linecap="square" stroke-miterlimit="10.00" fill="#B4DE2C"/>
<rect x="301.82" y="540.84" width="6.59" height="2.84" stroke-width="1.07" stroke-linecap="square" stroke-miterlimit="10.00" fill="#C7E020"/>
<rect x="316.46" y="538.01" width="6.59" height="5.67" stroke-width="1.07" stroke-linecap="square" stroke-miterlimit="10.00" fill="#DAE319"/>
<rect x="323.78" y="540.84" width="6.59" height="2.84" stroke-width="1.07" stroke-linecap="square" stroke-miterlimit="10.00" fill="#ECE51B"/>
</g><g clip-path="url(#c3-0d30f6ed-db66-47f3-aef7-08716c87b18e)">
<rect x="372.77" y="22.40" width="329.25" height="546.11" stroke-width="1.07" stroke-linecap="round" stroke-linejoin="round" fill="#EBEBEB"/>
<polyline points="372.77,472.76 702.02,472.76" fill="none" stroke-width="0.53" stroke="#FFFFFF" stroke-linejoin="round"/>
<polyline points="372.77,330.91 702.02,330.91" fill="none" stroke-width="0.53" stroke="#FFFFFF" stroke-linejoin="round"/>
<polyline points="372.77,189.07 702.02,189.07" fill="none" stroke-width="0.53" stroke="#FFFFFF" stroke-linejoin="round"/>
<polyline points="372.77,47.22 702.02,47.22" fill="none" stroke-width="0.53" stroke="#FFFFFF" stroke-linejoin="round"/>
<polyline points="427.62,568.50 427.62,22.40" fill="none" stroke-width="0.53" stroke="#FFFFFF" stroke-linejoin="round"/>
<polyline points="500.80,568.50 500.80,22.40" fill="none" stroke-width="0.53" stroke="#FFFFFF" stroke-linejoin="round"/>
<polyline points="573.99,568.50 573.99,22.40" fill="none" stroke-width="0.53" stroke="#FFFFFF" stroke-linejoin="round"/>
<polyline points="647.17,568.50 647.17,22.40" fill="none" stroke-width="0.53" stroke="#FFFFFF" stroke-linejoin="round"/>
<polyline points="372.77,543.68 702.02,543.68" fill="none" stroke-width="1.07" stroke="#FFFFFF" stroke-linejoin="round"/>
<polyline points="372.77,401.83 702.02,401.83" fill="none" stroke-width="1.07" stroke="#FFFFFF" stroke-linejoin="round"/>
<polyline points="372.77,259.99 702.02,259.99" fill="none" stroke-width="1.07" stroke="#FFFFFF" stroke-linejoin="round"/>
<polyline points="372.77,118.14 702.02,118.14" fill="none" stroke-width="1.07" stroke="#FFFFFF" stroke-linejoin="round"/>
<polyline points="391.03,568.50 391.03,22.40" fill="none" stroke-width="1.07" stroke="#FFFFFF" stroke-linejoin="round"/>
<polyline points="464.21,568.50 464.21,22.40" fill="none" stroke-width="1.07" stroke="#FFFFFF" stroke-linejoin="round"/>
<polyline points="537.39,568.50 537.39,22.40" fill="none" stroke-width="1.07" stroke="#FFFFFF" stroke-linejoin="round"/>
<polyline points="610.58,568.50 610.58,22.40" fill="none" stroke-width="1.07" stroke="#FFFFFF" stroke-linejoin="round"/>
<polyline points="683.76,568.50 683.76,22.40" fill="none" stroke-width="1.07" stroke="#FFFFFF" stroke-linejoin="round"/>
<rect x="387.73" y="498.29" width="6.59" height="45.39" stroke-width="1.07" stroke-linecap="square" stroke-miterlimit="10.00" fill="#440154"/>
<rect x="395.05" y="376.30" width="6.59" height="167.38" stroke-width="1.07" stroke-linecap="square" stroke-miterlimit="10.00" fill="#460B5E"/>
<rect x="402.37" y="467.08" width="6.59" height="76.60" stroke-width="1.07" stroke-linecap="square" stroke-miterlimit="10.00" fill="#481668"/>
<rect x="409.69" y="486.94" width="6.59" height="56.74" stroke-width="1.07" stroke-linecap="square" stroke-miterlimit="10.00" fill="#481F70"/>
<rect x="417.01" y="489.78" width="6.59" height="53.90" stroke-width="1.07" stroke-linecap="square" stroke-miterlimit="10.00" fill="#482878"/>
<rect x="424.32" y="484.11" width="6.59" height="59.58" stroke-width="1.07" stroke-linecap="square" stroke-miterlimit="10.00" fill="#46317E"/>
<rect x="431.64" y="518.15" width="6.59" height="25.53" stroke-width="1.07" stroke-linecap="square" stroke-miterlimit="10.00" fill="#443A83"/>
<rect x="438.96" y="512.47" width="6.59" height="31.21" stroke-width="1.07" stroke-linecap="square" stroke-miterlimit="10.00" fill="#414187"/>
<rect x="446.28" y="518.15" width="6.59" height="25.53" stroke-width="1.07" stroke-linecap="square" stroke-miterlimit="10.00" fill="#3E4A89"/>
<rect x="453.60" y="520.99" width="6.59" height="22.70" stroke-width="1.07" stroke-linecap="square" stroke-miterlimit="10.00" fill="#3B528B"/>
<rect x="460.92" y="492.62" width="6.59" height="51.06" stroke-width="1.07" stroke-linecap="square" stroke-miterlimit="10.00" fill="#375A8C"/>
<rect x="468.24" y="538.01" width="6.59" height="5.67" stroke-width="1.07" stroke-linecap="square" stroke-miterlimit="10.00" fill="#34618D"/>
<rect x="482.87" y="538.01" width="6.59" height="5.67" stroke-width="1.07" stroke-linecap="square" stroke-miterlimit="10.00" fill="#2E6F8E"/>
<rect x="490.19" y="538.01" width="6.59" height="5.67" stroke-width="1.07" stroke-linecap="square" stroke-miterlimit="10.00" fill="#2B758E"/>
<rect x="497.51" y="540.84" width="6.59" height="2.84" stroke-width="1.07" stroke-linecap="square" stroke-miterlimit="10.00" fill="#287C8E"/>
<rect x="504.83" y="540.84" width="6.59" height="2.84" stroke-width="1.07" stroke-linecap="square" stroke-miterlimit="10.00" fill="#26828E"/>
<rect x="512.15" y="540.84" width="6.59" height="2.84" stroke-width="1.07" stroke-linecap="square" stroke-miterlimit="10.00" fill="#23898E"/>
<rect x="519.46" y="540.84" width="6.59" height="2.84" stroke-width="1.07" stroke-linecap="square" stroke-miterlimit="10.00" fill="#21908C"/>
<rect x="526.78" y="540.84" width="6.59" height="2.84" stroke-width="1.07" stroke-linecap="square" stroke-miterlimit="10.00" fill="#1F978B"/>
<rect x="534.10" y="540.84" width="6.59" height="2.84" stroke-width="1.07" stroke-linecap="square" stroke-miterlimit="10.00" fill="#1F9E89"/>
<rect x="541.42" y="540.84" width="6.59" height="2.84" stroke-width="1.07" stroke-linecap="square" stroke-miterlimit="10.00" fill="#20A486"/>
<rect x="548.74" y="540.84" width="6.59" height="2.84" stroke-width="1.07" stroke-linecap="square" stroke-miterlimit="10.00" fill="#25AB82"/>
<rect x="556.06" y="540.84" width="6.59" height="2.84" stroke-width="1.07" stroke-linecap="square" stroke-miterlimit="10.00" fill="#2CB17E"/>
<rect x="563.37" y="540.84" width="6.59" height="2.84" stroke-width="1.07" stroke-linecap="square" stroke-miterlimit="10.00" fill="#35B779"/>
<rect x="614.60" y="540.84" width="6.59" height="2.84" stroke-width="1.07" stroke-linecap="square" stroke-miterlimit="10.00" fill="#8FD744"/>
<rect x="621.92" y="540.84" width="6.59" height="2.84" stroke-width="1.07" stroke-linecap="square" stroke-miterlimit="10.00" fill="#A1DA38"/>
<rect x="629.24" y="540.84" width="6.59" height="2.84" stroke-width="1.07" stroke-linecap="square" stroke-miterlimit="10.00" fill="#B4DE2C"/>
<rect x="680.47" y="540.84" width="6.59" height="2.84" stroke-width="1.07" stroke-linecap="square" stroke-miterlimit="10.00" fill="#FDE725"/>
</g><g clip-path="url(#c5-0d30f6ed-db66-47f3-aef7-08716c87b18e)">
<rect x="38.03" y="5.48" width="329.25" height="16.92" stroke-width="1.07" stroke-linecap="round" stroke-linejoin="round" fill="#D9D9D9"/>
<g><text x="202.66" y="17.09" text-anchor="middle" font-family="Arial" font-size="8.80px" fill="#1A1A1A" textLength="11.25px" lengthAdjust="spacingAndGlyphs">No</text></g>
</g><g clip-path="url(#c7-0d30f6ed-db66-47f3-aef7-08716c87b18e)">
<rect x="372.77" y="5.48" width="329.25" height="16.92" stroke-width="1.07" stroke-linecap="round" stroke-linejoin="round" fill="#D9D9D9"/>
<g><text x="537.39" y="17.09" text-anchor="middle" font-family="Arial" font-size="8.80px" fill="#1A1A1A" textLength="14.36px" lengthAdjust="spacingAndGlyphs">Yes</text></g>
</g><g clip-path="url(#c8-0d30f6ed-db66-47f3-aef7-08716c87b18e)">
<polyline points="56.29,571.24 56.29,568.50" fill="none" stroke-width="1.07" stroke="#333333" stroke-linejoin="round"/>
<polyline points="129.48,571.24 129.48,568.50" fill="none" stroke-width="1.07" stroke="#333333" stroke-linejoin="round"/>
<polyline points="202.66,571.24 202.66,568.50" fill="none" stroke-width="1.07" stroke="#333333" stroke-linejoin="round"/>
<polyline points="275.84,571.24 275.84,568.50" fill="none" stroke-width="1.07" stroke="#333333" stroke-linejoin="round"/>
<polyline points="349.03,571.24 349.03,568.50" fill="none" stroke-width="1.07" stroke="#333333" stroke-linejoin="round"/>
<g><text x="56.29" y="579.74" text-anchor="middle" font-family="Arial" font-size="8.80px" fill="#4D4D4D" textLength="4.90px" lengthAdjust="spacingAndGlyphs">0</text></g>
<g><text x="129.48" y="579.74" text-anchor="middle" font-family="Arial" font-size="8.80px" fill="#4D4D4D" textLength="9.79px" lengthAdjust="spacingAndGlyphs">10</text></g>
<g><text x="202.66" y="579.74" text-anchor="middle" font-family="Arial" font-size="8.80px" fill="#4D4D4D" textLength="9.79px" lengthAdjust="spacingAndGlyphs">20</text></g>
<g><text x="275.84" y="579.74" text-anchor="middle" font-family="Arial" font-size="8.80px" fill="#4D4D4D" textLength="9.79px" lengthAdjust="spacingAndGlyphs">30</text></g>
<g><text x="349.03" y="579.74" text-anchor="middle" font-family="Arial" font-size="8.80px" fill="#4D4D4D" textLength="9.79px" lengthAdjust="spacingAndGlyphs">40</text></g>
<polyline points="391.03,571.24 391.03,568.50" fill="none" stroke-width="1.07" stroke="#333333" stroke-linejoin="round"/>
<polyline points="464.21,571.24 464.21,568.50" fill="none" stroke-width="1.07" stroke="#333333" stroke-linejoin="round"/>
<polyline points="537.39,571.24 537.39,568.50" fill="none" stroke-width="1.07" stroke="#333333" stroke-linejoin="round"/>
<polyline points="610.58,571.24 610.58,568.50" fill="none" stroke-width="1.07" stroke="#333333" stroke-linejoin="round"/>
<polyline points="683.76,571.24 683.76,568.50" fill="none" stroke-width="1.07" stroke="#333333" stroke-linejoin="round"/>
<g><text x="391.03" y="579.74" text-anchor="middle" font-family="Arial" font-size="8.80px" fill="#4D4D4D" textLength="4.90px" lengthAdjust="spacingAndGlyphs">0</text></g>
<g><text x="464.21" y="579.74" text-anchor="middle" font-family="Arial" font-size="8.80px" fill="#4D4D4D" textLength="9.79px" lengthAdjust="spacingAndGlyphs">10</text></g>
<g><text x="537.39" y="579.74" text-anchor="middle" font-family="Arial" font-size="8.80px" fill="#4D4D4D" textLength="9.79px" lengthAdjust="spacingAndGlyphs">20</text></g>
<g><text x="610.58" y="579.74" text-anchor="middle" font-family="Arial" font-size="8.80px" fill="#4D4D4D" textLength="9.79px" lengthAdjust="spacingAndGlyphs">30</text></g>
<g><text x="683.76" y="579.74" text-anchor="middle" font-family="Arial" font-size="8.80px" fill="#4D4D4D" textLength="9.79px" lengthAdjust="spacingAndGlyphs">40</text></g>
<g><text x="33.10" y="546.83" text-anchor="end" font-family="Arial" font-size="8.80px" fill="#4D4D4D" textLength="4.90px" lengthAdjust="spacingAndGlyphs">0</text></g>
<g><text x="33.10" y="404.98" text-anchor="end" font-family="Arial" font-size="8.80px" fill="#4D4D4D" textLength="9.79px" lengthAdjust="spacingAndGlyphs">50</text></g>
<g><text x="33.10" y="263.14" text-anchor="end" font-family="Arial" font-size="8.80px" fill="#4D4D4D" textLength="14.69px" lengthAdjust="spacingAndGlyphs">100</text></g>
<g><text x="33.10" y="121.29" text-anchor="end" font-family="Arial" font-size="8.80px" fill="#4D4D4D" textLength="14.69px" lengthAdjust="spacingAndGlyphs">150</text></g>
<polyline points="35.29,543.68 38.03,543.68" fill="none" stroke-width="1.07" stroke="#333333" stroke-linejoin="round"/>
<polyline points="35.29,401.83 38.03,401.83" fill="none" stroke-width="1.07" stroke="#333333" stroke-linejoin="round"/>
<polyline points="35.29,259.99 38.03,259.99" fill="none" stroke-width="1.07" stroke="#333333" stroke-linejoin="round"/>
<polyline points="35.29,118.14 38.03,118.14" fill="none" stroke-width="1.07" stroke="#333333" stroke-linejoin="round"/>
<g><text x="370.03" y="592.20" text-anchor="middle" font-family="Arial" font-size="11.00px" textLength="90.73px" lengthAdjust="spacingAndGlyphs">Years At Company</text></g>
<g><text transform="translate(13.36,295.45) rotate(-90.00)" text-anchor="middle" font-family="Arial" font-size="11.00px" textLength="81.35px" lengthAdjust="spacingAndGlyphs">Employee Count</text></g>
<rect x="712.98" y="117.97" width="81.54" height="354.95" stroke-width="1.07" stroke-linecap="round" stroke-linejoin="round" fill="#FFFFFF"/>
<g><text x="718.46" y="132.49" font-family="Arial" font-size="11.00px" textLength="27.73px" lengthAdjust="spacingAndGlyphs">Years</text></g>
<rect x="718.46" y="139.13" width="17.28" height="17.28" stroke-width="1.07" stroke-linecap="round" stroke-linejoin="round" fill="#F2F2F2"/>
<rect x="719.17" y="139.84" width="15.86" height="15.86" stroke-width="1.07" stroke-linecap="square" stroke-miterlimit="10.00" fill="#440154"/>
<rect x="718.46" y="156.41" width="17.28" height="17.28" stroke-width="1.07" stroke-linecap="round" stroke-linejoin="round" fill="#F2F2F2"/>
<rect x="719.17" y="157.12" width="15.86" height="15.86" stroke-width="1.07" stroke-linecap="square" stroke-miterlimit="10.00" fill="#460B5E"/>
<rect x="718.46" y="173.69" width="17.28" height="17.28" stroke-width="1.07" stroke-linecap="round" stroke-linejoin="round" fill="#F2F2F2"/>
<rect x="719.17" y="174.40" width="15.86" height="15.86" stroke-width="1.07" stroke-linecap="square" stroke-miterlimit="10.00" fill="#481668"/>
<rect x="718.46" y="190.97" width="17.28" height="17.28" stroke-width="1.07" stroke-linecap="round" stroke-linejoin="round" fill="#F2F2F2"/>
<rect x="719.17" y="191.68" width="15.86" height="15.86" stroke-width="1.07" stroke-linecap="square" stroke-miterlimit="10.00" fill="#481F70"/>
<rect x="718.46" y="208.25" width="17.28" height="17.28" stroke-width="1.07" stroke-linecap="round" stroke-linejoin="round" fill="#F2F2F2"/>
<rect x="719.17" y="208.96" width="15.86" height="15.86" stroke-width="1.07" stroke-linecap="square" stroke-miterlimit="10.00" fill="#482878"/>
<rect x="718.46" y="225.53" width="17.28" height="17.28" stroke-width="1.07" stroke-linecap="round" stroke-linejoin="round" fill="#F2F2F2"/>
<rect x="719.17" y="226.24" width="15.86" height="15.86" stroke-width="1.07" stroke-linecap="square" stroke-miterlimit="10.00" fill="#46317E"/>
<rect x="718.46" y="242.81" width="17.28" height="17.28" stroke-width="1.07" stroke-linecap="round" stroke-linejoin="round" fill="#F2F2F2"/>
<rect x="719.17" y="243.52" width="15.86" height="15.86" stroke-width="1.07" stroke-linecap="square" stroke-miterlimit="10.00" fill="#443A83"/>
<rect x="718.46" y="260.09" width="17.28" height="17.28" stroke-width="1.07" stroke-linecap="round" stroke-linejoin="round" fill="#F2F2F2"/>
<rect x="719.17" y="260.80" width="15.86" height="15.86" stroke-width="1.07" stroke-linecap="square" stroke-miterlimit="10.00" fill="#414187"/>
<rect x="718.46" y="277.37" width="17.28" height="17.28" stroke-width="1.07" stroke-linecap="round" stroke-linejoin="round" fill="#F2F2F2"/>
<rect x="719.17" y="278.08" width="15.86" height="15.86" stroke-width="1.07" stroke-linecap="square" stroke-miterlimit="10.00" fill="#3E4A89"/>
<rect x="718.46" y="294.65" width="17.28" height="17.28" stroke-width="1.07" stroke-linecap="round" stroke-linejoin="round" fill="#F2F2F2"/>
<rect x="719.17" y="295.36" width="15.86" height="15.86" stroke-width="1.07" stroke-linecap="square" stroke-miterlimit="10.00" fill="#3B528B"/>
<rect x="718.46" y="311.93" width="17.28" height="17.28" stroke-width="1.07" stroke-linecap="round" stroke-linejoin="round" fill="#F2F2F2"/>
<rect x="719.17" y="312.64" width="15.86" height="15.86" stroke-width="1.07" stroke-linecap="square" stroke-miterlimit="10.00" fill="#375A8C"/>
<rect x="718.46" y="329.21" width="17.28" height="17.28" stroke-width="1.07" stroke-linecap="round" stroke-linejoin="round" fill="#F2F2F2"/>
<rect x="719.17" y="329.92" width="15.86" height="15.86" stroke-width="1.07" stroke-linecap="square" stroke-miterlimit="10.00" fill="#34618D"/>
<rect x="718.46" y="346.49" width="17.28" height="17.28" stroke-width="1.07" stroke-linecap="round" stroke-linejoin="round" fill="#F2F2F2"/>
<rect x="719.17" y="347.20" width="15.86" height="15.86" stroke-width="1.07" stroke-linecap="square" stroke-miterlimit="10.00" fill="#31688E"/>
<rect x="718.46" y="363.77" width="17.28" height="17.28" stroke-width="1.07" stroke-linecap="round" stroke-linejoin="round" fill="#F2F2F2"/>
<rect x="719.17" y="364.48" width="15.86" height="15.86" stroke-width="1.07" stroke-linecap="square" stroke-miterlimit="10.00" fill="#2E6F8E"/>
<rect x="718.46" y="381.05" width="17.28" height="17.28" stroke-width="1.07" stroke-linecap="round" stroke-linejoin="round" fill="#F2F2F2"/>
<rect x="719.17" y="381.76" width="15.86" height="15.86" stroke-width="1.07" stroke-linecap="square" stroke-miterlimit="10.00" fill="#2B758E"/>
<rect x="718.46" y="398.33" width="17.28" height="17.28" stroke-width="1.07" stroke-linecap="round" stroke-linejoin="round" fill="#F2F2F2"/>
<rect x="719.17" y="399.04" width="15.86" height="15.86" stroke-width="1.07" stroke-linecap="square" stroke-miterlimit="10.00" fill="#287C8E"/>
<rect x="718.46" y="415.61" width="17.28" height="17.28" stroke-width="1.07" stroke-linecap="round" stroke-linejoin="round" fill="#F2F2F2"/>
<rect x="719.17" y="416.32" width="15.86" height="15.86" stroke-width="1.07" stroke-linecap="square" stroke-miterlimit="10.00" fill="#26828E"/>
<rect x="718.46" y="432.89" width="17.28" height="17.28" stroke-width="1.07" stroke-linecap="round" stroke-linejoin="round" fill="#F2F2F2"/>
<rect x="719.17" y="433.60" width="15.86" height="15.86" stroke-width="1.07" stroke-linecap="square" stroke-miterlimit="10.00" fill="#23898E"/>
<rect x="718.46" y="450.17" width="17.28" height="17.28" stroke-width="1.07" stroke-linecap="round" stroke-linejoin="round" fill="#F2F2F2"/>
<rect x="719.17" y="450.88" width="15.86" height="15.86" stroke-width="1.07" stroke-linecap="square" stroke-miterlimit="10.00" fill="#21908C"/>
<rect x="756.49" y="139.13" width="17.28" height="17.28" stroke-width="1.07" stroke-linecap="round" stroke-linejoin="round" fill="#F2F2F2"/>
<rect x="757.20" y="139.84" width="15.86" height="15.86" stroke-width="1.07" stroke-linecap="square" stroke-miterlimit="10.00" fill="#1F978B"/>
<rect x="756.49" y="156.41" width="17.28" height="17.28" stroke-width="1.07" stroke-linecap="round" stroke-linejoin="round" fill="#F2F2F2"/>
<rect x="757.20" y="157.12" width="15.86" height="15.86" stroke-width="1.07" stroke-linecap="square" stroke-miterlimit="10.00" fill="#1F9E89"/>
<rect x="756.49" y="173.69" width="17.28" height="17.28" stroke-width="1.07" stroke-linecap="round" stroke-linejoin="round" fill="#F2F2F2"/>
<rect x="757.20" y="174.40" width="15.86" height="15.86" stroke-width="1.07" stroke-linecap="square" stroke-miterlimit="10.00" fill="#20A486"/>
<rect x="756.49" y="190.97" width="17.28" height="17.28" stroke-width="1.07" stroke-linecap="round" stroke-linejoin="round" fill="#F2F2F2"/>
<rect x="757.20" y="191.68" width="15.86" height="15.86" stroke-width="1.07" stroke-linecap="square" stroke-miterlimit="10.00" fill="#25AB82"/>
<rect x="756.49" y="208.25" width="17.28" height="17.28" stroke-width="1.07" stroke-linecap="round" stroke-linejoin="round" fill="#F2F2F2"/>
<rect x="757.20" y="208.96" width="15.86" height="15.86" stroke-width="1.07" stroke-linecap="square" stroke-miterlimit="10.00" fill="#2CB17E"/>
<rect x="756.49" y="225.53" width="17.28" height="17.28" stroke-width="1.07" stroke-linecap="round" stroke-linejoin="round" fill="#F2F2F2"/>
<rect x="757.20" y="226.24" width="15.86" height="15.86" stroke-width="1.07" stroke-linecap="square" stroke-miterlimit="10.00" fill="#35B779"/>
<rect x="756.49" y="242.81" width="17.28" height="17.28" stroke-width="1.07" stroke-linecap="round" stroke-linejoin="round" fill="#F2F2F2"/>
<rect x="757.20" y="243.52" width="15.86" height="15.86" stroke-width="1.07" stroke-linecap="square" stroke-miterlimit="10.00" fill="#40BD72"/>
<rect x="756.49" y="260.09" width="17.28" height="17.28" stroke-width="1.07" stroke-linecap="round" stroke-linejoin="round" fill="#F2F2F2"/>
<rect x="757.20" y="260.80" width="15.86" height="15.86" stroke-width="1.07" stroke-linecap="square" stroke-miterlimit="10.00" fill="#4EC36B"/>
<rect x="756.49" y="277.37" width="17.28" height="17.28" stroke-width="1.07" stroke-linecap="round" stroke-linejoin="round" fill="#F2F2F2"/>
<rect x="757.20" y="278.08" width="15.86" height="15.86" stroke-width="1.07" stroke-linecap="square" stroke-miterlimit="10.00" fill="#5DC863"/>
<rect x="756.49" y="294.65" width="17.28" height="17.28" stroke-width="1.07" stroke-linecap="round" stroke-linejoin="round" fill="#F2F2F2"/>
<rect x="757.20" y="295.36" width="15.86" height="15.86" stroke-width="1.07" stroke-linecap="square" stroke-miterlimit="10.00" fill="#6DCD59"/>
<rect x="756.49" y="311.93" width="17.28" height="17.28" stroke-width="1.07" stroke-linecap="round" stroke-linejoin="round" fill="#F2F2F2"/>
<rect x="757.20" y="312.64" width="15.86" height="15.86" stroke-width="1.07" stroke-linecap="square" stroke-miterlimit="10.00" fill="#7DD34F"/>
<rect x="756.49" y="329.21" width="17.28" height="17.28" stroke-width="1.07" stroke-linecap="round" stroke-linejoin="round" fill="#F2F2F2"/>
<rect x="757.20" y="329.92" width="15.86" height="15.86" stroke-width="1.07" stroke-linecap="square" stroke-miterlimit="10.00" fill="#8FD744"/>
<rect x="756.49" y="346.49" width="17.28" height="17.28" stroke-width="1.07" stroke-linecap="round" stroke-linejoin="round" fill="#F2F2F2"/>
<rect x="757.20" y="347.20" width="15.86" height="15.86" stroke-width="1.07" stroke-linecap="square" stroke-miterlimit="10.00" fill="#A1DA38"/>
<rect x="756.49" y="363.77" width="17.28" height="17.28" stroke-width="1.07" stroke-linecap="round" stroke-linejoin="round" fill="#F2F2F2"/>
<rect x="757.20" y="364.48" width="15.86" height="15.86" stroke-width="1.07" stroke-linecap="square" stroke-miterlimit="10.00" fill="#B4DE2C"/>
<rect x="756.49" y="381.05" width="17.28" height="17.28" stroke-width="1.07" stroke-linecap="round" stroke-linejoin="round" fill="#F2F2F2"/>
<rect x="757.20" y="381.76" width="15.86" height="15.86" stroke-width="1.07" stroke-linecap="square" stroke-miterlimit="10.00" fill="#C7E020"/>
<rect x="756.49" y="398.33" width="17.28" height="17.28" stroke-width="1.07" stroke-linecap="round" stroke-linejoin="round" fill="#F2F2F2"/>
<rect x="757.20" y="399.04" width="15.86" height="15.86" stroke-width="1.07" stroke-linecap="square" stroke-miterlimit="10.00" fill="#DAE319"/>
<rect x="756.49" y="415.61" width="17.28" height="17.28" stroke-width="1.07" stroke-linecap="round" stroke-linejoin="round" fill="#F2F2F2"/>
<rect x="757.20" y="416.32" width="15.86" height="15.86" stroke-width="1.07" stroke-linecap="square" stroke-miterlimit="10.00" fill="#ECE51B"/>
<rect x="756.49" y="432.89" width="17.28" height="17.28" stroke-width="1.07" stroke-linecap="round" stroke-linejoin="round" fill="#F2F2F2"/>
<rect x="757.20" y="433.60" width="15.86" height="15.86" stroke-width="1.07" stroke-linecap="square" stroke-miterlimit="10.00" fill="#FDE725"/>
<g><text x="741.22" y="150.92" font-family="Arial" font-size="8.80px" textLength="4.90px" lengthAdjust="spacingAndGlyphs">0</text></g>
<g><text x="741.22" y="168.20" font-family="Arial" font-size="8.80px" textLength="4.90px" lengthAdjust="spacingAndGlyphs">1</text></g>
<g><text x="741.22" y="185.48" font-family="Arial" font-size="8.80px" textLength="4.90px" lengthAdjust="spacingAndGlyphs">2</text></g>
<g><text x="741.22" y="202.76" font-family="Arial" font-size="8.80px" textLength="4.90px" lengthAdjust="spacingAndGlyphs">3</text></g>
<g><text x="741.22" y="220.04" font-family="Arial" font-size="8.80px" textLength="4.90px" lengthAdjust="spacingAndGlyphs">4</text></g>
<g><text x="741.22" y="237.32" font-family="Arial" font-size="8.80px" textLength="4.90px" lengthAdjust="spacingAndGlyphs">5</text></g>
<g><text x="741.22" y="254.60" font-family="Arial" font-size="8.80px" textLength="4.90px" lengthAdjust="spacingAndGlyphs">6</text></g>
<g><text x="741.22" y="271.88" font-family="Arial" font-size="8.80px" textLength="4.90px" lengthAdjust="spacingAndGlyphs">7</text></g>
<g><text x="741.22" y="289.16" font-family="Arial" font-size="8.80px" textLength="4.90px" lengthAdjust="spacingAndGlyphs">8</text></g>
<g><text x="741.22" y="306.44" font-family="Arial" font-size="8.80px" textLength="4.90px" lengthAdjust="spacingAndGlyphs">9</text></g>
<g><text x="741.22" y="323.72" font-family="Arial" font-size="8.80px" textLength="9.79px" lengthAdjust="spacingAndGlyphs">10</text></g>
<g><text x="741.22" y="341.00" font-family="Arial" font-size="8.80px" textLength="9.14px" lengthAdjust="spacingAndGlyphs">11</text></g>
<g><text x="741.22" y="358.28" font-family="Arial" font-size="8.80px" textLength="9.79px" lengthAdjust="spacingAndGlyphs">12</text></g>
<g><text x="741.22" y="375.56" font-family="Arial" font-size="8.80px" textLength="9.79px" lengthAdjust="spacingAndGlyphs">13</text></g>
<g><text x="741.22" y="392.84" font-family="Arial" font-size="8.80px" textLength="9.79px" lengthAdjust="spacingAndGlyphs">14</text></g>
<g><text x="741.22" y="410.12" font-family="Arial" font-size="8.80px" textLength="9.79px" lengthAdjust="spacingAndGlyphs">15</text></g>
<g><text x="741.22" y="427.40" font-family="Arial" font-size="8.80px" textLength="9.79px" lengthAdjust="spacingAndGlyphs">16</text></g>
<g><text x="741.22" y="444.68" font-family="Arial" font-size="8.80px" textLength="9.79px" lengthAdjust="spacingAndGlyphs">17</text></g>
<g><text x="741.22" y="461.96" font-family="Arial" font-size="8.80px" textLength="9.79px" lengthAdjust="spacingAndGlyphs">18</text></g>
<g><text x="779.25" y="150.92" font-family="Arial" font-size="8.80px" textLength="9.79px" lengthAdjust="spacingAndGlyphs">19</text></g>
<g><text x="779.25" y="168.20" font-family="Arial" font-size="8.80px" textLength="9.79px" lengthAdjust="spacingAndGlyphs">20</text></g>
<g><text x="779.25" y="185.48" font-family="Arial" font-size="8.80px" textLength="9.79px" lengthAdjust="spacingAndGlyphs">21</text></g>
<g><text x="779.25" y="202.76" font-family="Arial" font-size="8.80px" textLength="9.79px" lengthAdjust="spacingAndGlyphs">22</text></g>
<g><text x="779.25" y="220.04" font-family="Arial" font-size="8.80px" textLength="9.79px" lengthAdjust="spacingAndGlyphs">23</text></g>
<g><text x="779.25" y="237.32" font-family="Arial" font-size="8.80px" textLength="9.79px" lengthAdjust="spacingAndGlyphs">24</text></g>
<g><text x="779.25" y="254.60" font-family="Arial" font-size="8.80px" textLength="9.79px" lengthAdjust="spacingAndGlyphs">25</text></g>
<g><text x="779.25" y="271.88" font-family="Arial" font-size="8.80px" textLength="9.79px" lengthAdjust="spacingAndGlyphs">26</text></g>
<g><text x="779.25" y="289.16" font-family="Arial" font-size="8.80px" textLength="9.79px" lengthAdjust="spacingAndGlyphs">27</text></g>
<g><text x="779.25" y="306.44" font-family="Arial" font-size="8.80px" textLength="9.79px" lengthAdjust="spacingAndGlyphs">29</text></g>
<g><text x="779.25" y="323.72" font-family="Arial" font-size="8.80px" textLength="9.79px" lengthAdjust="spacingAndGlyphs">30</text></g>
<g><text x="779.25" y="341.00" font-family="Arial" font-size="8.80px" textLength="9.79px" lengthAdjust="spacingAndGlyphs">31</text></g>
<g><text x="779.25" y="358.28" font-family="Arial" font-size="8.80px" textLength="9.79px" lengthAdjust="spacingAndGlyphs">32</text></g>
<g><text x="779.25" y="375.56" font-family="Arial" font-size="8.80px" textLength="9.79px" lengthAdjust="spacingAndGlyphs">33</text></g>
<g><text x="779.25" y="392.84" font-family="Arial" font-size="8.80px" textLength="9.79px" lengthAdjust="spacingAndGlyphs">34</text></g>
<g><text x="779.25" y="410.12" font-family="Arial" font-size="8.80px" textLength="9.79px" lengthAdjust="spacingAndGlyphs">36</text></g>
<g><text x="779.25" y="427.40" font-family="Arial" font-size="8.80px" textLength="9.79px" lengthAdjust="spacingAndGlyphs">37</text></g>
<g><text x="779.25" y="444.68" font-family="Arial" font-size="8.80px" textLength="9.79px" lengthAdjust="spacingAndGlyphs">40</text></g>
</g>
</svg>